G75*
%MOIN*%
%OFA0B0*%
%FSLAX25Y25*%
%IPPOS*%
%LPD*%
%AMOC8*
5,1,8,0,0,1.08239X$1,22.5*
%
%ADD10C,0.00000*%
%ADD11C,0.00600*%
%ADD12C,0.00500*%
%ADD13C,0.00400*%
%ADD14R,0.00787X0.00787*%
%ADD15R,0.00984X0.00591*%
%ADD16C,0.00200*%
%ADD17C,0.00394*%
D10*
X0001000Y0001000D02*
X0001000Y0315961D01*
X0394701Y0315961D01*
X0394701Y0001000D01*
X0001000Y0001000D01*
D11*
X0152063Y0147000D02*
X0152063Y0155000D01*
X0153063Y0156000D01*
X0161063Y0156000D01*
X0162063Y0155000D01*
X0163063Y0156000D01*
X0171063Y0156000D01*
X0172063Y0155000D01*
X0173063Y0156000D01*
X0181063Y0156000D01*
X0182063Y0155000D01*
X0182063Y0147000D01*
X0181063Y0146000D01*
X0173063Y0146000D01*
X0172063Y0147000D01*
X0171063Y0146000D01*
X0163063Y0146000D01*
X0162063Y0147000D01*
X0161063Y0146000D01*
X0153063Y0146000D01*
X0152063Y0147000D01*
X0153500Y0161000D02*
X0151000Y0163500D01*
X0151000Y0168500D01*
X0153500Y0171000D01*
X0151000Y0173500D01*
X0151000Y0178500D01*
X0153500Y0181000D01*
X0158500Y0181000D01*
X0161000Y0178500D01*
X0161000Y0173500D01*
X0158500Y0171000D01*
X0161000Y0168500D01*
X0161000Y0163500D01*
X0158500Y0161000D01*
X0153500Y0161000D01*
X0153500Y0171000D02*
X0158500Y0171000D01*
X0158500Y0181000D02*
X0161000Y0183500D01*
X0161000Y0188500D01*
X0158500Y0191000D01*
X0161000Y0193500D01*
X0161000Y0198500D01*
X0158500Y0201000D01*
X0161000Y0203500D01*
X0161000Y0208500D01*
X0158500Y0211000D01*
X0153500Y0211000D01*
X0151000Y0208500D01*
X0151000Y0203500D01*
X0153500Y0201000D01*
X0158500Y0201000D01*
X0153500Y0201000D02*
X0151000Y0198500D01*
X0151000Y0193500D01*
X0153500Y0191000D01*
X0158500Y0191000D01*
X0153500Y0191000D02*
X0151000Y0188500D01*
X0151000Y0183500D01*
X0153500Y0181000D01*
X0143748Y0184004D02*
X0143748Y0174504D01*
X0143748Y0171004D01*
X0135748Y0167504D02*
X0134748Y0167504D01*
X0134748Y0166504D01*
X0128748Y0166504D01*
X0128748Y0167504D01*
X0127748Y0167504D01*
X0119748Y0171004D02*
X0119748Y0174504D01*
X0119748Y0184504D01*
X0119748Y0188004D01*
X0127748Y0191504D02*
X0128748Y0191504D01*
X0128748Y0192504D01*
X0134748Y0192504D01*
X0134748Y0191504D01*
X0135748Y0191504D01*
X0143748Y0188004D02*
X0143748Y0184004D01*
X0130748Y0179504D02*
X0130750Y0179567D01*
X0130756Y0179629D01*
X0130766Y0179691D01*
X0130779Y0179753D01*
X0130797Y0179813D01*
X0130818Y0179872D01*
X0130843Y0179930D01*
X0130872Y0179986D01*
X0130904Y0180040D01*
X0130939Y0180092D01*
X0130977Y0180141D01*
X0131019Y0180189D01*
X0131063Y0180233D01*
X0131111Y0180275D01*
X0131160Y0180313D01*
X0131212Y0180348D01*
X0131266Y0180380D01*
X0131322Y0180409D01*
X0131380Y0180434D01*
X0131439Y0180455D01*
X0131499Y0180473D01*
X0131561Y0180486D01*
X0131623Y0180496D01*
X0131685Y0180502D01*
X0131748Y0180504D01*
X0131811Y0180502D01*
X0131873Y0180496D01*
X0131935Y0180486D01*
X0131997Y0180473D01*
X0132057Y0180455D01*
X0132116Y0180434D01*
X0132174Y0180409D01*
X0132230Y0180380D01*
X0132284Y0180348D01*
X0132336Y0180313D01*
X0132385Y0180275D01*
X0132433Y0180233D01*
X0132477Y0180189D01*
X0132519Y0180141D01*
X0132557Y0180092D01*
X0132592Y0180040D01*
X0132624Y0179986D01*
X0132653Y0179930D01*
X0132678Y0179872D01*
X0132699Y0179813D01*
X0132717Y0179753D01*
X0132730Y0179691D01*
X0132740Y0179629D01*
X0132746Y0179567D01*
X0132748Y0179504D01*
X0132746Y0179441D01*
X0132740Y0179379D01*
X0132730Y0179317D01*
X0132717Y0179255D01*
X0132699Y0179195D01*
X0132678Y0179136D01*
X0132653Y0179078D01*
X0132624Y0179022D01*
X0132592Y0178968D01*
X0132557Y0178916D01*
X0132519Y0178867D01*
X0132477Y0178819D01*
X0132433Y0178775D01*
X0132385Y0178733D01*
X0132336Y0178695D01*
X0132284Y0178660D01*
X0132230Y0178628D01*
X0132174Y0178599D01*
X0132116Y0178574D01*
X0132057Y0178553D01*
X0131997Y0178535D01*
X0131935Y0178522D01*
X0131873Y0178512D01*
X0131811Y0178506D01*
X0131748Y0178504D01*
X0131685Y0178506D01*
X0131623Y0178512D01*
X0131561Y0178522D01*
X0131499Y0178535D01*
X0131439Y0178553D01*
X0131380Y0178574D01*
X0131322Y0178599D01*
X0131266Y0178628D01*
X0131212Y0178660D01*
X0131160Y0178695D01*
X0131111Y0178733D01*
X0131063Y0178775D01*
X0131019Y0178819D01*
X0130977Y0178867D01*
X0130939Y0178916D01*
X0130904Y0178968D01*
X0130872Y0179022D01*
X0130843Y0179078D01*
X0130818Y0179136D01*
X0130797Y0179195D01*
X0130779Y0179255D01*
X0130766Y0179317D01*
X0130756Y0179379D01*
X0130750Y0179441D01*
X0130748Y0179504D01*
X0124748Y0179504D02*
X0124750Y0179676D01*
X0124756Y0179847D01*
X0124767Y0180019D01*
X0124782Y0180190D01*
X0124801Y0180361D01*
X0124824Y0180531D01*
X0124851Y0180701D01*
X0124883Y0180870D01*
X0124918Y0181038D01*
X0124958Y0181205D01*
X0125002Y0181371D01*
X0125049Y0181536D01*
X0125101Y0181700D01*
X0125157Y0181862D01*
X0125217Y0182023D01*
X0125281Y0182183D01*
X0125349Y0182341D01*
X0125420Y0182497D01*
X0125495Y0182651D01*
X0125575Y0182804D01*
X0125657Y0182954D01*
X0125744Y0183103D01*
X0125834Y0183249D01*
X0125928Y0183393D01*
X0126025Y0183535D01*
X0126126Y0183674D01*
X0126230Y0183811D01*
X0126337Y0183945D01*
X0126448Y0184076D01*
X0126561Y0184205D01*
X0126678Y0184331D01*
X0126798Y0184454D01*
X0126921Y0184574D01*
X0127047Y0184691D01*
X0127176Y0184804D01*
X0127307Y0184915D01*
X0127441Y0185022D01*
X0127578Y0185126D01*
X0127717Y0185227D01*
X0127859Y0185324D01*
X0128003Y0185418D01*
X0128149Y0185508D01*
X0128298Y0185595D01*
X0128448Y0185677D01*
X0128601Y0185757D01*
X0128755Y0185832D01*
X0128911Y0185903D01*
X0129069Y0185971D01*
X0129229Y0186035D01*
X0129390Y0186095D01*
X0129552Y0186151D01*
X0129716Y0186203D01*
X0129881Y0186250D01*
X0130047Y0186294D01*
X0130214Y0186334D01*
X0130382Y0186369D01*
X0130551Y0186401D01*
X0130721Y0186428D01*
X0130891Y0186451D01*
X0131062Y0186470D01*
X0131233Y0186485D01*
X0131405Y0186496D01*
X0131576Y0186502D01*
X0131748Y0186504D01*
X0131920Y0186502D01*
X0132091Y0186496D01*
X0132263Y0186485D01*
X0132434Y0186470D01*
X0132605Y0186451D01*
X0132775Y0186428D01*
X0132945Y0186401D01*
X0133114Y0186369D01*
X0133282Y0186334D01*
X0133449Y0186294D01*
X0133615Y0186250D01*
X0133780Y0186203D01*
X0133944Y0186151D01*
X0134106Y0186095D01*
X0134267Y0186035D01*
X0134427Y0185971D01*
X0134585Y0185903D01*
X0134741Y0185832D01*
X0134895Y0185757D01*
X0135048Y0185677D01*
X0135198Y0185595D01*
X0135347Y0185508D01*
X0135493Y0185418D01*
X0135637Y0185324D01*
X0135779Y0185227D01*
X0135918Y0185126D01*
X0136055Y0185022D01*
X0136189Y0184915D01*
X0136320Y0184804D01*
X0136449Y0184691D01*
X0136575Y0184574D01*
X0136698Y0184454D01*
X0136818Y0184331D01*
X0136935Y0184205D01*
X0137048Y0184076D01*
X0137159Y0183945D01*
X0137266Y0183811D01*
X0137370Y0183674D01*
X0137471Y0183535D01*
X0137568Y0183393D01*
X0137662Y0183249D01*
X0137752Y0183103D01*
X0137839Y0182954D01*
X0137921Y0182804D01*
X0138001Y0182651D01*
X0138076Y0182497D01*
X0138147Y0182341D01*
X0138215Y0182183D01*
X0138279Y0182023D01*
X0138339Y0181862D01*
X0138395Y0181700D01*
X0138447Y0181536D01*
X0138494Y0181371D01*
X0138538Y0181205D01*
X0138578Y0181038D01*
X0138613Y0180870D01*
X0138645Y0180701D01*
X0138672Y0180531D01*
X0138695Y0180361D01*
X0138714Y0180190D01*
X0138729Y0180019D01*
X0138740Y0179847D01*
X0138746Y0179676D01*
X0138748Y0179504D01*
X0138746Y0179332D01*
X0138740Y0179161D01*
X0138729Y0178989D01*
X0138714Y0178818D01*
X0138695Y0178647D01*
X0138672Y0178477D01*
X0138645Y0178307D01*
X0138613Y0178138D01*
X0138578Y0177970D01*
X0138538Y0177803D01*
X0138494Y0177637D01*
X0138447Y0177472D01*
X0138395Y0177308D01*
X0138339Y0177146D01*
X0138279Y0176985D01*
X0138215Y0176825D01*
X0138147Y0176667D01*
X0138076Y0176511D01*
X0138001Y0176357D01*
X0137921Y0176204D01*
X0137839Y0176054D01*
X0137752Y0175905D01*
X0137662Y0175759D01*
X0137568Y0175615D01*
X0137471Y0175473D01*
X0137370Y0175334D01*
X0137266Y0175197D01*
X0137159Y0175063D01*
X0137048Y0174932D01*
X0136935Y0174803D01*
X0136818Y0174677D01*
X0136698Y0174554D01*
X0136575Y0174434D01*
X0136449Y0174317D01*
X0136320Y0174204D01*
X0136189Y0174093D01*
X0136055Y0173986D01*
X0135918Y0173882D01*
X0135779Y0173781D01*
X0135637Y0173684D01*
X0135493Y0173590D01*
X0135347Y0173500D01*
X0135198Y0173413D01*
X0135048Y0173331D01*
X0134895Y0173251D01*
X0134741Y0173176D01*
X0134585Y0173105D01*
X0134427Y0173037D01*
X0134267Y0172973D01*
X0134106Y0172913D01*
X0133944Y0172857D01*
X0133780Y0172805D01*
X0133615Y0172758D01*
X0133449Y0172714D01*
X0133282Y0172674D01*
X0133114Y0172639D01*
X0132945Y0172607D01*
X0132775Y0172580D01*
X0132605Y0172557D01*
X0132434Y0172538D01*
X0132263Y0172523D01*
X0132091Y0172512D01*
X0131920Y0172506D01*
X0131748Y0172504D01*
X0131576Y0172506D01*
X0131405Y0172512D01*
X0131233Y0172523D01*
X0131062Y0172538D01*
X0130891Y0172557D01*
X0130721Y0172580D01*
X0130551Y0172607D01*
X0130382Y0172639D01*
X0130214Y0172674D01*
X0130047Y0172714D01*
X0129881Y0172758D01*
X0129716Y0172805D01*
X0129552Y0172857D01*
X0129390Y0172913D01*
X0129229Y0172973D01*
X0129069Y0173037D01*
X0128911Y0173105D01*
X0128755Y0173176D01*
X0128601Y0173251D01*
X0128448Y0173331D01*
X0128298Y0173413D01*
X0128149Y0173500D01*
X0128003Y0173590D01*
X0127859Y0173684D01*
X0127717Y0173781D01*
X0127578Y0173882D01*
X0127441Y0173986D01*
X0127307Y0174093D01*
X0127176Y0174204D01*
X0127047Y0174317D01*
X0126921Y0174434D01*
X0126798Y0174554D01*
X0126678Y0174677D01*
X0126561Y0174803D01*
X0126448Y0174932D01*
X0126337Y0175063D01*
X0126230Y0175197D01*
X0126126Y0175334D01*
X0126025Y0175473D01*
X0125928Y0175615D01*
X0125834Y0175759D01*
X0125744Y0175905D01*
X0125657Y0176054D01*
X0125575Y0176204D01*
X0125495Y0176357D01*
X0125420Y0176511D01*
X0125349Y0176667D01*
X0125281Y0176825D01*
X0125217Y0176985D01*
X0125157Y0177146D01*
X0125101Y0177308D01*
X0125049Y0177472D01*
X0125002Y0177637D01*
X0124958Y0177803D01*
X0124918Y0177970D01*
X0124883Y0178138D01*
X0124851Y0178307D01*
X0124824Y0178477D01*
X0124801Y0178647D01*
X0124782Y0178818D01*
X0124767Y0178989D01*
X0124756Y0179161D01*
X0124750Y0179332D01*
X0124748Y0179504D01*
X0153500Y0211000D02*
X0151000Y0213500D01*
X0151000Y0218500D01*
X0153500Y0221000D01*
X0151000Y0223500D01*
X0151000Y0228500D01*
X0153500Y0231000D01*
X0151000Y0233500D01*
X0151000Y0238500D01*
X0153500Y0241000D01*
X0158500Y0241000D01*
X0161000Y0238500D01*
X0161000Y0233500D01*
X0158500Y0231000D01*
X0161000Y0228500D01*
X0161000Y0223500D01*
X0158500Y0221000D01*
X0161000Y0218500D01*
X0161000Y0213500D01*
X0158500Y0211000D01*
X0158500Y0221000D02*
X0153500Y0221000D01*
X0153500Y0231000D02*
X0158500Y0231000D01*
X0158500Y0241000D02*
X0161000Y0243500D01*
X0161000Y0248500D01*
X0158500Y0251000D01*
X0161000Y0253500D01*
X0161000Y0258500D01*
X0158500Y0261000D01*
X0161000Y0263500D01*
X0161000Y0268500D01*
X0158500Y0271000D01*
X0161000Y0273500D01*
X0161000Y0278500D01*
X0158500Y0281000D01*
X0153500Y0281000D01*
X0151000Y0278500D01*
X0151000Y0273500D01*
X0153500Y0271000D01*
X0158500Y0271000D01*
X0153500Y0271000D02*
X0151000Y0268500D01*
X0151000Y0263500D01*
X0153500Y0261000D01*
X0158500Y0261000D01*
X0153500Y0261000D02*
X0151000Y0258500D01*
X0151000Y0253500D01*
X0153500Y0251000D01*
X0158500Y0251000D01*
X0153500Y0251000D02*
X0151000Y0248500D01*
X0151000Y0243500D01*
X0153500Y0241000D01*
X0178500Y0171000D02*
X0176000Y0168500D01*
X0176000Y0163500D01*
X0178500Y0161000D01*
X0183500Y0161000D01*
X0186000Y0163500D01*
X0186000Y0168500D01*
X0183500Y0171000D01*
X0178500Y0171000D01*
X0186000Y0168500D02*
X0188500Y0171000D01*
X0193500Y0171000D01*
X0196000Y0168500D01*
X0198500Y0171000D01*
X0203500Y0171000D01*
X0206000Y0168500D01*
X0208500Y0171000D01*
X0213500Y0171000D01*
X0216000Y0168500D01*
X0218500Y0171000D01*
X0223500Y0171000D01*
X0226000Y0168500D01*
X0228500Y0171000D01*
X0233500Y0171000D01*
X0236000Y0168500D01*
X0238500Y0171000D01*
X0243500Y0171000D01*
X0246000Y0168500D01*
X0248500Y0171000D01*
X0253500Y0171000D01*
X0256000Y0168500D01*
X0258500Y0171000D01*
X0263500Y0171000D01*
X0266000Y0168500D01*
X0268500Y0171000D01*
X0273500Y0171000D01*
X0276000Y0168500D01*
X0278500Y0171000D01*
X0283500Y0171000D01*
X0286000Y0168500D01*
X0286000Y0163500D01*
X0283500Y0161000D01*
X0278500Y0161000D01*
X0276000Y0163500D01*
X0273500Y0161000D01*
X0268500Y0161000D01*
X0266000Y0163500D01*
X0266000Y0168500D01*
X0266000Y0163500D02*
X0263500Y0161000D01*
X0258500Y0161000D01*
X0256000Y0163500D01*
X0253500Y0161000D01*
X0248500Y0161000D01*
X0246000Y0163500D01*
X0243500Y0161000D01*
X0238500Y0161000D01*
X0236000Y0163500D01*
X0236000Y0168500D01*
X0236000Y0163500D02*
X0233500Y0161000D01*
X0228500Y0161000D01*
X0226000Y0163500D01*
X0223500Y0161000D01*
X0218500Y0161000D01*
X0216000Y0163500D01*
X0213500Y0161000D01*
X0208500Y0161000D01*
X0206000Y0163500D01*
X0206000Y0168500D01*
X0206000Y0163500D02*
X0203500Y0161000D01*
X0198500Y0161000D01*
X0196000Y0163500D01*
X0193500Y0161000D01*
X0188500Y0161000D01*
X0186000Y0163500D01*
X0191413Y0155606D02*
X0188913Y0153106D01*
X0188913Y0148106D01*
X0191413Y0145606D01*
X0196413Y0145606D01*
X0198913Y0148106D01*
X0198913Y0153106D01*
X0196413Y0155606D01*
X0191413Y0155606D01*
X0196000Y0163500D02*
X0196000Y0168500D01*
X0216000Y0168500D02*
X0216000Y0163500D01*
X0226000Y0163500D02*
X0226000Y0168500D01*
X0246000Y0168500D02*
X0246000Y0163500D01*
X0256000Y0163500D02*
X0256000Y0168500D01*
X0276000Y0168500D02*
X0276000Y0163500D01*
X0274091Y0155606D02*
X0271591Y0153106D01*
X0271591Y0148106D01*
X0274091Y0145606D01*
X0279091Y0145606D01*
X0281591Y0148106D01*
X0281591Y0153106D01*
X0279091Y0155606D01*
X0274091Y0155606D01*
X0291000Y0163500D02*
X0291000Y0168500D01*
X0293500Y0171000D01*
X0291000Y0173500D01*
X0291000Y0178500D01*
X0293500Y0181000D01*
X0291000Y0183500D01*
X0291000Y0188500D01*
X0293500Y0191000D01*
X0291000Y0193500D01*
X0291000Y0198500D01*
X0293500Y0201000D01*
X0291000Y0203500D01*
X0291000Y0208500D01*
X0293500Y0211000D01*
X0291000Y0213500D01*
X0291000Y0218500D01*
X0293500Y0221000D01*
X0291000Y0223500D01*
X0291000Y0228500D01*
X0293500Y0231000D01*
X0291000Y0233500D01*
X0291000Y0238500D01*
X0293500Y0241000D01*
X0291000Y0243500D01*
X0291000Y0248500D01*
X0293500Y0251000D01*
X0291000Y0253500D01*
X0291000Y0258500D01*
X0293500Y0261000D01*
X0291000Y0263500D01*
X0291000Y0268500D01*
X0293500Y0271000D01*
X0291000Y0273500D01*
X0291000Y0278500D01*
X0293500Y0281000D01*
X0298500Y0281000D01*
X0301000Y0278500D01*
X0301000Y0273500D01*
X0298500Y0271000D01*
X0301000Y0268500D01*
X0301000Y0263500D01*
X0298500Y0261000D01*
X0293500Y0261000D01*
X0298500Y0261000D02*
X0301000Y0258500D01*
X0301000Y0253500D01*
X0298500Y0251000D01*
X0301000Y0248500D01*
X0301000Y0243500D01*
X0298500Y0241000D01*
X0301000Y0238500D01*
X0301000Y0233500D01*
X0298500Y0231000D01*
X0293500Y0231000D01*
X0298500Y0231000D02*
X0301000Y0228500D01*
X0301000Y0223500D01*
X0298500Y0221000D01*
X0301000Y0218500D01*
X0301000Y0213500D01*
X0298500Y0211000D01*
X0301000Y0208500D01*
X0301000Y0203500D01*
X0298500Y0201000D01*
X0293500Y0201000D01*
X0298500Y0201000D02*
X0301000Y0198500D01*
X0301000Y0193500D01*
X0298500Y0191000D01*
X0301000Y0188500D01*
X0301000Y0183500D01*
X0298500Y0181000D01*
X0301000Y0178500D01*
X0301000Y0173500D01*
X0298500Y0171000D01*
X0301000Y0168500D01*
X0301000Y0163500D01*
X0298500Y0161000D01*
X0293500Y0161000D01*
X0291000Y0163500D01*
X0293500Y0171000D02*
X0298500Y0171000D01*
X0298500Y0181000D02*
X0293500Y0181000D01*
X0293500Y0191000D02*
X0298500Y0191000D01*
X0298500Y0211000D02*
X0293500Y0211000D01*
X0293500Y0221000D02*
X0298500Y0221000D01*
X0298500Y0241000D02*
X0293500Y0241000D01*
X0293500Y0251000D02*
X0298500Y0251000D01*
X0298500Y0271000D02*
X0293500Y0271000D01*
D12*
X0303450Y0271921D02*
X0306950Y0271921D01*
X0307010Y0271919D01*
X0307071Y0271914D01*
X0307130Y0271905D01*
X0307189Y0271892D01*
X0307248Y0271876D01*
X0307305Y0271856D01*
X0307360Y0271833D01*
X0307415Y0271806D01*
X0307467Y0271777D01*
X0307518Y0271744D01*
X0307567Y0271708D01*
X0307613Y0271670D01*
X0307657Y0271628D01*
X0307699Y0271584D01*
X0307737Y0271538D01*
X0307773Y0271489D01*
X0307806Y0271438D01*
X0307835Y0271386D01*
X0307862Y0271331D01*
X0307885Y0271276D01*
X0307905Y0271219D01*
X0307921Y0271160D01*
X0307934Y0271101D01*
X0307943Y0271042D01*
X0307948Y0270981D01*
X0307950Y0270921D01*
X0307950Y0270421D01*
X0307950Y0274275D02*
X0303450Y0274275D01*
X0303450Y0275525D01*
X0303452Y0275594D01*
X0303458Y0275663D01*
X0303467Y0275731D01*
X0303480Y0275798D01*
X0303497Y0275865D01*
X0303518Y0275931D01*
X0303542Y0275995D01*
X0303570Y0276058D01*
X0303601Y0276120D01*
X0303635Y0276180D01*
X0303673Y0276237D01*
X0303714Y0276293D01*
X0303757Y0276346D01*
X0303804Y0276397D01*
X0303853Y0276445D01*
X0303905Y0276490D01*
X0303960Y0276532D01*
X0304016Y0276571D01*
X0304075Y0276608D01*
X0304136Y0276640D01*
X0304198Y0276670D01*
X0304262Y0276696D01*
X0304327Y0276718D01*
X0304393Y0276737D01*
X0304460Y0276752D01*
X0304528Y0276763D01*
X0304597Y0276771D01*
X0304666Y0276775D01*
X0304734Y0276775D01*
X0304803Y0276771D01*
X0304872Y0276763D01*
X0304940Y0276752D01*
X0305007Y0276737D01*
X0305073Y0276718D01*
X0305138Y0276696D01*
X0305202Y0276670D01*
X0305264Y0276640D01*
X0305325Y0276608D01*
X0305384Y0276571D01*
X0305440Y0276532D01*
X0305495Y0276490D01*
X0305547Y0276445D01*
X0305596Y0276397D01*
X0305643Y0276346D01*
X0305686Y0276293D01*
X0305727Y0276237D01*
X0305765Y0276180D01*
X0305799Y0276120D01*
X0305830Y0276058D01*
X0305858Y0275995D01*
X0305882Y0275931D01*
X0305903Y0275865D01*
X0305920Y0275798D01*
X0305933Y0275731D01*
X0305942Y0275663D01*
X0305948Y0275594D01*
X0305950Y0275525D01*
X0305950Y0274275D01*
X0307950Y0278550D02*
X0307950Y0281050D01*
X0307950Y0278550D02*
X0305450Y0280675D01*
X0303450Y0279925D02*
X0303452Y0279852D01*
X0303457Y0279780D01*
X0303466Y0279708D01*
X0303479Y0279636D01*
X0303495Y0279565D01*
X0303515Y0279495D01*
X0303539Y0279427D01*
X0303565Y0279359D01*
X0303596Y0279293D01*
X0303629Y0279228D01*
X0303666Y0279166D01*
X0303705Y0279105D01*
X0303748Y0279046D01*
X0303794Y0278989D01*
X0303842Y0278935D01*
X0303893Y0278884D01*
X0303947Y0278834D01*
X0304003Y0278788D01*
X0304061Y0278745D01*
X0304122Y0278704D01*
X0304184Y0278667D01*
X0304248Y0278633D01*
X0304314Y0278602D01*
X0304381Y0278574D01*
X0304450Y0278550D01*
X0305450Y0280675D02*
X0305404Y0280721D01*
X0305355Y0280765D01*
X0305304Y0280805D01*
X0305251Y0280843D01*
X0305196Y0280878D01*
X0305139Y0280910D01*
X0305081Y0280939D01*
X0305021Y0280965D01*
X0304959Y0280987D01*
X0304897Y0281006D01*
X0304834Y0281022D01*
X0304770Y0281034D01*
X0304705Y0281043D01*
X0304640Y0281048D01*
X0304575Y0281050D01*
X0304510Y0281048D01*
X0304444Y0281042D01*
X0304380Y0281033D01*
X0304316Y0281020D01*
X0304252Y0281003D01*
X0304190Y0280982D01*
X0304129Y0280958D01*
X0304070Y0280930D01*
X0304013Y0280899D01*
X0303957Y0280865D01*
X0303903Y0280827D01*
X0303852Y0280787D01*
X0303803Y0280743D01*
X0303757Y0280697D01*
X0303713Y0280648D01*
X0303673Y0280597D01*
X0303635Y0280543D01*
X0303601Y0280488D01*
X0303570Y0280430D01*
X0303542Y0280371D01*
X0303518Y0280310D01*
X0303497Y0280248D01*
X0303480Y0280184D01*
X0303467Y0280120D01*
X0303458Y0280056D01*
X0303452Y0279990D01*
X0303450Y0279925D01*
X0191000Y0186000D02*
X0186669Y0186000D01*
X0190363Y0162556D02*
X0190363Y0159056D01*
X0190361Y0158996D01*
X0190356Y0158935D01*
X0190347Y0158876D01*
X0190334Y0158817D01*
X0190318Y0158758D01*
X0190298Y0158701D01*
X0190275Y0158646D01*
X0190248Y0158591D01*
X0190219Y0158539D01*
X0190186Y0158488D01*
X0190150Y0158439D01*
X0190112Y0158393D01*
X0190070Y0158349D01*
X0190026Y0158307D01*
X0189980Y0158269D01*
X0189931Y0158233D01*
X0189880Y0158200D01*
X0189828Y0158171D01*
X0189773Y0158144D01*
X0189718Y0158121D01*
X0189661Y0158101D01*
X0189602Y0158085D01*
X0189543Y0158072D01*
X0189484Y0158063D01*
X0189423Y0158058D01*
X0189363Y0158056D01*
X0188863Y0158056D01*
X0192718Y0158056D02*
X0192718Y0162556D01*
X0193968Y0162556D01*
X0194037Y0162554D01*
X0194106Y0162548D01*
X0194174Y0162539D01*
X0194241Y0162526D01*
X0194308Y0162509D01*
X0194374Y0162488D01*
X0194438Y0162464D01*
X0194501Y0162436D01*
X0194563Y0162405D01*
X0194623Y0162371D01*
X0194680Y0162333D01*
X0194736Y0162292D01*
X0194789Y0162249D01*
X0194840Y0162202D01*
X0194888Y0162153D01*
X0194933Y0162101D01*
X0194975Y0162046D01*
X0195014Y0161990D01*
X0195051Y0161931D01*
X0195083Y0161870D01*
X0195113Y0161808D01*
X0195139Y0161744D01*
X0195161Y0161679D01*
X0195180Y0161613D01*
X0195195Y0161546D01*
X0195206Y0161478D01*
X0195214Y0161409D01*
X0195218Y0161340D01*
X0195218Y0161272D01*
X0195214Y0161203D01*
X0195206Y0161134D01*
X0195195Y0161066D01*
X0195180Y0160999D01*
X0195161Y0160933D01*
X0195139Y0160868D01*
X0195113Y0160804D01*
X0195083Y0160742D01*
X0195051Y0160681D01*
X0195014Y0160622D01*
X0194975Y0160566D01*
X0194933Y0160511D01*
X0194888Y0160459D01*
X0194840Y0160410D01*
X0194789Y0160363D01*
X0194736Y0160320D01*
X0194680Y0160279D01*
X0194623Y0160241D01*
X0194563Y0160207D01*
X0194501Y0160176D01*
X0194438Y0160148D01*
X0194374Y0160124D01*
X0194308Y0160103D01*
X0194241Y0160086D01*
X0194174Y0160073D01*
X0194106Y0160064D01*
X0194037Y0160058D01*
X0193968Y0160056D01*
X0192718Y0160056D01*
X0196993Y0160556D02*
X0196993Y0159306D01*
X0196995Y0159237D01*
X0197001Y0159168D01*
X0197010Y0159100D01*
X0197023Y0159033D01*
X0197040Y0158966D01*
X0197061Y0158900D01*
X0197085Y0158836D01*
X0197113Y0158773D01*
X0197144Y0158711D01*
X0197178Y0158651D01*
X0197216Y0158594D01*
X0197257Y0158538D01*
X0197300Y0158485D01*
X0197347Y0158434D01*
X0197396Y0158386D01*
X0197448Y0158341D01*
X0197503Y0158299D01*
X0197559Y0158260D01*
X0197618Y0158223D01*
X0197679Y0158191D01*
X0197741Y0158161D01*
X0197805Y0158135D01*
X0197870Y0158113D01*
X0197936Y0158094D01*
X0198003Y0158079D01*
X0198071Y0158068D01*
X0198140Y0158060D01*
X0198209Y0158056D01*
X0198277Y0158056D01*
X0198346Y0158060D01*
X0198415Y0158068D01*
X0198483Y0158079D01*
X0198550Y0158094D01*
X0198616Y0158113D01*
X0198681Y0158135D01*
X0198745Y0158161D01*
X0198807Y0158191D01*
X0198868Y0158223D01*
X0198927Y0158260D01*
X0198983Y0158299D01*
X0199038Y0158341D01*
X0199090Y0158386D01*
X0199139Y0158434D01*
X0199186Y0158485D01*
X0199229Y0158538D01*
X0199270Y0158594D01*
X0199308Y0158651D01*
X0199342Y0158711D01*
X0199373Y0158773D01*
X0199401Y0158836D01*
X0199425Y0158900D01*
X0199446Y0158966D01*
X0199463Y0159033D01*
X0199476Y0159100D01*
X0199485Y0159168D01*
X0199491Y0159237D01*
X0199493Y0159306D01*
X0199493Y0159556D01*
X0199491Y0159616D01*
X0199486Y0159677D01*
X0199477Y0159736D01*
X0199464Y0159795D01*
X0199448Y0159854D01*
X0199428Y0159911D01*
X0199405Y0159966D01*
X0199378Y0160021D01*
X0199349Y0160073D01*
X0199316Y0160124D01*
X0199280Y0160173D01*
X0199242Y0160219D01*
X0199200Y0160263D01*
X0199156Y0160305D01*
X0199110Y0160343D01*
X0199061Y0160379D01*
X0199010Y0160412D01*
X0198958Y0160441D01*
X0198903Y0160468D01*
X0198848Y0160491D01*
X0198791Y0160511D01*
X0198732Y0160527D01*
X0198673Y0160540D01*
X0198614Y0160549D01*
X0198553Y0160554D01*
X0198493Y0160556D01*
X0196993Y0160556D01*
X0196995Y0160643D01*
X0197001Y0160730D01*
X0197010Y0160817D01*
X0197023Y0160903D01*
X0197040Y0160989D01*
X0197061Y0161074D01*
X0197086Y0161157D01*
X0197114Y0161240D01*
X0197145Y0161321D01*
X0197180Y0161401D01*
X0197219Y0161479D01*
X0197261Y0161556D01*
X0197306Y0161631D01*
X0197355Y0161703D01*
X0197406Y0161774D01*
X0197461Y0161842D01*
X0197518Y0161907D01*
X0197579Y0161970D01*
X0197642Y0162031D01*
X0197707Y0162088D01*
X0197775Y0162143D01*
X0197846Y0162194D01*
X0197918Y0162243D01*
X0197993Y0162288D01*
X0198070Y0162330D01*
X0198148Y0162369D01*
X0198228Y0162404D01*
X0198309Y0162435D01*
X0198392Y0162463D01*
X0198475Y0162488D01*
X0198560Y0162509D01*
X0198646Y0162526D01*
X0198732Y0162539D01*
X0198819Y0162548D01*
X0198906Y0162554D01*
X0198993Y0162556D01*
X0176813Y0157850D02*
X0174924Y0157850D01*
X0175869Y0157850D02*
X0175869Y0161250D01*
X0174924Y0160494D01*
X0166530Y0159739D02*
X0164924Y0157850D01*
X0166813Y0157850D01*
X0164924Y0160494D02*
X0164946Y0160556D01*
X0164972Y0160616D01*
X0165001Y0160675D01*
X0165034Y0160731D01*
X0165070Y0160786D01*
X0165109Y0160838D01*
X0165151Y0160888D01*
X0165196Y0160935D01*
X0165244Y0160980D01*
X0165295Y0161022D01*
X0165347Y0161060D01*
X0165403Y0161095D01*
X0165460Y0161127D01*
X0165519Y0161155D01*
X0165579Y0161180D01*
X0165641Y0161201D01*
X0165704Y0161219D01*
X0165768Y0161232D01*
X0165833Y0161242D01*
X0165898Y0161248D01*
X0165963Y0161250D01*
X0166019Y0161248D01*
X0166074Y0161243D01*
X0166129Y0161234D01*
X0166183Y0161221D01*
X0166236Y0161205D01*
X0166288Y0161185D01*
X0166339Y0161162D01*
X0166388Y0161136D01*
X0166435Y0161107D01*
X0166480Y0161074D01*
X0166523Y0161039D01*
X0166564Y0161001D01*
X0166602Y0160960D01*
X0166637Y0160917D01*
X0166670Y0160872D01*
X0166699Y0160825D01*
X0166725Y0160776D01*
X0166748Y0160725D01*
X0166768Y0160673D01*
X0166784Y0160620D01*
X0166797Y0160566D01*
X0166806Y0160511D01*
X0166811Y0160456D01*
X0166813Y0160400D01*
X0166811Y0160343D01*
X0166806Y0160287D01*
X0166797Y0160230D01*
X0166785Y0160175D01*
X0166769Y0160120D01*
X0166750Y0160067D01*
X0166728Y0160014D01*
X0166702Y0159964D01*
X0166673Y0159915D01*
X0166642Y0159867D01*
X0166607Y0159822D01*
X0166570Y0159779D01*
X0166530Y0159739D01*
X0156057Y0159739D02*
X0155302Y0159739D01*
X0156057Y0159738D02*
X0156111Y0159740D01*
X0156165Y0159746D01*
X0156218Y0159755D01*
X0156270Y0159769D01*
X0156321Y0159786D01*
X0156371Y0159806D01*
X0156419Y0159830D01*
X0156466Y0159858D01*
X0156510Y0159889D01*
X0156552Y0159923D01*
X0156592Y0159959D01*
X0156628Y0159999D01*
X0156662Y0160041D01*
X0156693Y0160085D01*
X0156721Y0160132D01*
X0156745Y0160180D01*
X0156765Y0160230D01*
X0156782Y0160281D01*
X0156796Y0160333D01*
X0156805Y0160386D01*
X0156811Y0160440D01*
X0156813Y0160494D01*
X0156811Y0160548D01*
X0156805Y0160602D01*
X0156796Y0160655D01*
X0156782Y0160707D01*
X0156765Y0160758D01*
X0156745Y0160808D01*
X0156721Y0160856D01*
X0156693Y0160903D01*
X0156662Y0160947D01*
X0156628Y0160989D01*
X0156592Y0161029D01*
X0156552Y0161065D01*
X0156510Y0161099D01*
X0156466Y0161130D01*
X0156419Y0161158D01*
X0156371Y0161182D01*
X0156321Y0161202D01*
X0156270Y0161219D01*
X0156218Y0161233D01*
X0156165Y0161242D01*
X0156111Y0161248D01*
X0156057Y0161250D01*
X0154924Y0161250D01*
X0155869Y0159738D02*
X0155929Y0159736D01*
X0155990Y0159730D01*
X0156049Y0159721D01*
X0156108Y0159707D01*
X0156166Y0159690D01*
X0156223Y0159669D01*
X0156279Y0159645D01*
X0156332Y0159617D01*
X0156384Y0159585D01*
X0156434Y0159551D01*
X0156481Y0159513D01*
X0156526Y0159472D01*
X0156568Y0159429D01*
X0156607Y0159383D01*
X0156643Y0159334D01*
X0156676Y0159283D01*
X0156706Y0159231D01*
X0156732Y0159176D01*
X0156755Y0159120D01*
X0156774Y0159063D01*
X0156789Y0159004D01*
X0156801Y0158945D01*
X0156809Y0158885D01*
X0156813Y0158824D01*
X0156813Y0158764D01*
X0156809Y0158703D01*
X0156801Y0158643D01*
X0156789Y0158584D01*
X0156774Y0158525D01*
X0156755Y0158468D01*
X0156732Y0158412D01*
X0156706Y0158357D01*
X0156676Y0158305D01*
X0156643Y0158254D01*
X0156607Y0158205D01*
X0156568Y0158159D01*
X0156526Y0158116D01*
X0156481Y0158075D01*
X0156434Y0158037D01*
X0156384Y0158003D01*
X0156332Y0157971D01*
X0156279Y0157943D01*
X0156223Y0157919D01*
X0156166Y0157898D01*
X0156108Y0157881D01*
X0156049Y0157867D01*
X0155990Y0157858D01*
X0155929Y0157852D01*
X0155869Y0157850D01*
X0154924Y0157850D01*
X0148550Y0160950D02*
X0148550Y0161450D01*
X0148548Y0161510D01*
X0148543Y0161571D01*
X0148534Y0161630D01*
X0148521Y0161689D01*
X0148505Y0161748D01*
X0148485Y0161805D01*
X0148462Y0161860D01*
X0148435Y0161915D01*
X0148406Y0161967D01*
X0148373Y0162018D01*
X0148337Y0162067D01*
X0148299Y0162113D01*
X0148257Y0162157D01*
X0148213Y0162199D01*
X0148167Y0162237D01*
X0148118Y0162273D01*
X0148067Y0162306D01*
X0148015Y0162335D01*
X0147960Y0162362D01*
X0147905Y0162385D01*
X0147848Y0162405D01*
X0147789Y0162421D01*
X0147730Y0162434D01*
X0147671Y0162443D01*
X0147610Y0162448D01*
X0147550Y0162450D01*
X0144050Y0162450D01*
X0144050Y0164804D02*
X0144050Y0166054D01*
X0144050Y0164804D02*
X0148550Y0164804D01*
X0146550Y0164804D02*
X0146550Y0166054D01*
X0146548Y0166123D01*
X0146542Y0166192D01*
X0146533Y0166260D01*
X0146520Y0166327D01*
X0146503Y0166394D01*
X0146482Y0166460D01*
X0146458Y0166524D01*
X0146430Y0166587D01*
X0146399Y0166649D01*
X0146365Y0166709D01*
X0146327Y0166766D01*
X0146286Y0166822D01*
X0146243Y0166875D01*
X0146196Y0166926D01*
X0146147Y0166974D01*
X0146095Y0167019D01*
X0146040Y0167061D01*
X0145984Y0167100D01*
X0145925Y0167137D01*
X0145864Y0167169D01*
X0145802Y0167199D01*
X0145738Y0167225D01*
X0145673Y0167247D01*
X0145607Y0167266D01*
X0145540Y0167281D01*
X0145472Y0167292D01*
X0145403Y0167300D01*
X0145334Y0167304D01*
X0145266Y0167304D01*
X0145197Y0167300D01*
X0145128Y0167292D01*
X0145060Y0167281D01*
X0144993Y0167266D01*
X0144927Y0167247D01*
X0144862Y0167225D01*
X0144798Y0167199D01*
X0144736Y0167169D01*
X0144675Y0167137D01*
X0144616Y0167100D01*
X0144560Y0167061D01*
X0144505Y0167019D01*
X0144453Y0166974D01*
X0144404Y0166926D01*
X0144357Y0166875D01*
X0144314Y0166822D01*
X0144273Y0166766D01*
X0144235Y0166709D01*
X0144201Y0166649D01*
X0144170Y0166587D01*
X0144142Y0166524D01*
X0144118Y0166460D01*
X0144097Y0166394D01*
X0144080Y0166327D01*
X0144067Y0166260D01*
X0144058Y0166192D01*
X0144052Y0166123D01*
X0144050Y0166054D01*
X0145050Y0169079D02*
X0144050Y0170329D01*
X0148550Y0170329D01*
X0148550Y0169079D02*
X0148550Y0171579D01*
X0116998Y0172104D02*
X0116998Y0174604D01*
X0116998Y0173354D02*
X0112498Y0173354D01*
X0113498Y0172104D01*
X0115123Y0169754D02*
X0114373Y0168379D01*
X0112498Y0168879D02*
X0112500Y0168959D01*
X0112505Y0169040D01*
X0112514Y0169120D01*
X0112526Y0169199D01*
X0112541Y0169278D01*
X0112560Y0169356D01*
X0112582Y0169434D01*
X0112607Y0169510D01*
X0112636Y0169585D01*
X0112668Y0169659D01*
X0112703Y0169731D01*
X0112741Y0169802D01*
X0112782Y0169871D01*
X0112826Y0169939D01*
X0112873Y0170004D01*
X0114373Y0168379D02*
X0114340Y0168327D01*
X0114304Y0168276D01*
X0114265Y0168228D01*
X0114223Y0168183D01*
X0114178Y0168140D01*
X0114130Y0168100D01*
X0114081Y0168063D01*
X0114029Y0168029D01*
X0113975Y0167998D01*
X0113919Y0167970D01*
X0113862Y0167946D01*
X0113803Y0167926D01*
X0113744Y0167909D01*
X0113683Y0167896D01*
X0113622Y0167887D01*
X0113560Y0167881D01*
X0113498Y0167879D01*
X0113438Y0167881D01*
X0113377Y0167886D01*
X0113318Y0167895D01*
X0113259Y0167908D01*
X0113200Y0167924D01*
X0113143Y0167944D01*
X0113088Y0167967D01*
X0113033Y0167994D01*
X0112981Y0168023D01*
X0112930Y0168056D01*
X0112881Y0168092D01*
X0112835Y0168130D01*
X0112791Y0168172D01*
X0112749Y0168216D01*
X0112711Y0168262D01*
X0112675Y0168311D01*
X0112642Y0168362D01*
X0112613Y0168414D01*
X0112586Y0168469D01*
X0112563Y0168524D01*
X0112543Y0168581D01*
X0112527Y0168640D01*
X0112514Y0168699D01*
X0112505Y0168758D01*
X0112500Y0168819D01*
X0112498Y0168879D01*
X0116374Y0167754D02*
X0116435Y0167817D01*
X0116493Y0167882D01*
X0116549Y0167950D01*
X0116602Y0168021D01*
X0116651Y0168093D01*
X0116698Y0168167D01*
X0116742Y0168243D01*
X0116782Y0168321D01*
X0116819Y0168401D01*
X0116853Y0168482D01*
X0116883Y0168564D01*
X0116910Y0168648D01*
X0116934Y0168733D01*
X0116954Y0168818D01*
X0116970Y0168904D01*
X0116983Y0168991D01*
X0116992Y0169079D01*
X0116997Y0169166D01*
X0116999Y0169254D01*
X0116998Y0169254D02*
X0116996Y0169314D01*
X0116991Y0169375D01*
X0116982Y0169434D01*
X0116969Y0169493D01*
X0116953Y0169552D01*
X0116933Y0169609D01*
X0116910Y0169664D01*
X0116883Y0169719D01*
X0116854Y0169771D01*
X0116821Y0169822D01*
X0116785Y0169871D01*
X0116747Y0169917D01*
X0116705Y0169961D01*
X0116661Y0170003D01*
X0116615Y0170041D01*
X0116566Y0170077D01*
X0116515Y0170110D01*
X0116463Y0170139D01*
X0116408Y0170166D01*
X0116353Y0170189D01*
X0116296Y0170209D01*
X0116237Y0170225D01*
X0116178Y0170238D01*
X0116119Y0170247D01*
X0116058Y0170252D01*
X0115998Y0170254D01*
X0115936Y0170252D01*
X0115874Y0170246D01*
X0115813Y0170237D01*
X0115752Y0170224D01*
X0115693Y0170207D01*
X0115634Y0170187D01*
X0115577Y0170163D01*
X0115521Y0170135D01*
X0115467Y0170104D01*
X0115415Y0170070D01*
X0115366Y0170033D01*
X0115318Y0169993D01*
X0115273Y0169950D01*
X0115231Y0169905D01*
X0115192Y0169857D01*
X0115156Y0169806D01*
X0115123Y0169754D01*
X0171684Y0144250D02*
X0171684Y0140750D01*
X0171682Y0140690D01*
X0171677Y0140629D01*
X0171668Y0140570D01*
X0171655Y0140511D01*
X0171639Y0140452D01*
X0171619Y0140395D01*
X0171596Y0140340D01*
X0171569Y0140285D01*
X0171540Y0140233D01*
X0171507Y0140182D01*
X0171471Y0140133D01*
X0171433Y0140087D01*
X0171391Y0140043D01*
X0171347Y0140001D01*
X0171301Y0139963D01*
X0171252Y0139927D01*
X0171201Y0139894D01*
X0171149Y0139865D01*
X0171094Y0139838D01*
X0171039Y0139815D01*
X0170982Y0139795D01*
X0170923Y0139779D01*
X0170864Y0139766D01*
X0170805Y0139757D01*
X0170744Y0139752D01*
X0170684Y0139750D01*
X0170184Y0139750D01*
X0174038Y0139750D02*
X0174038Y0144250D01*
X0175288Y0144250D01*
X0175357Y0144248D01*
X0175426Y0144242D01*
X0175494Y0144233D01*
X0175561Y0144220D01*
X0175628Y0144203D01*
X0175694Y0144182D01*
X0175758Y0144158D01*
X0175821Y0144130D01*
X0175883Y0144099D01*
X0175943Y0144065D01*
X0176000Y0144027D01*
X0176056Y0143986D01*
X0176109Y0143943D01*
X0176160Y0143896D01*
X0176208Y0143847D01*
X0176253Y0143795D01*
X0176295Y0143740D01*
X0176334Y0143684D01*
X0176371Y0143625D01*
X0176403Y0143564D01*
X0176433Y0143502D01*
X0176459Y0143438D01*
X0176481Y0143373D01*
X0176500Y0143307D01*
X0176515Y0143240D01*
X0176526Y0143172D01*
X0176534Y0143103D01*
X0176538Y0143034D01*
X0176538Y0142966D01*
X0176534Y0142897D01*
X0176526Y0142828D01*
X0176515Y0142760D01*
X0176500Y0142693D01*
X0176481Y0142627D01*
X0176459Y0142562D01*
X0176433Y0142498D01*
X0176403Y0142436D01*
X0176371Y0142375D01*
X0176334Y0142316D01*
X0176295Y0142260D01*
X0176253Y0142205D01*
X0176208Y0142153D01*
X0176160Y0142104D01*
X0176109Y0142057D01*
X0176056Y0142014D01*
X0176000Y0141973D01*
X0175943Y0141935D01*
X0175883Y0141901D01*
X0175821Y0141870D01*
X0175758Y0141842D01*
X0175694Y0141818D01*
X0175628Y0141797D01*
X0175561Y0141780D01*
X0175494Y0141767D01*
X0175426Y0141758D01*
X0175357Y0141752D01*
X0175288Y0141750D01*
X0174038Y0141750D01*
X0178313Y0140750D02*
X0180813Y0140750D01*
X0180063Y0141750D02*
X0180063Y0139750D01*
X0178313Y0140750D02*
X0179313Y0144250D01*
X0271541Y0158056D02*
X0272041Y0158056D01*
X0272101Y0158058D01*
X0272162Y0158063D01*
X0272221Y0158072D01*
X0272280Y0158085D01*
X0272339Y0158101D01*
X0272396Y0158121D01*
X0272451Y0158144D01*
X0272506Y0158171D01*
X0272558Y0158200D01*
X0272609Y0158233D01*
X0272658Y0158269D01*
X0272704Y0158307D01*
X0272748Y0158349D01*
X0272790Y0158393D01*
X0272828Y0158439D01*
X0272864Y0158488D01*
X0272897Y0158539D01*
X0272926Y0158591D01*
X0272953Y0158646D01*
X0272976Y0158701D01*
X0272996Y0158758D01*
X0273012Y0158817D01*
X0273025Y0158876D01*
X0273034Y0158935D01*
X0273039Y0158996D01*
X0273041Y0159056D01*
X0273041Y0162556D01*
X0275395Y0162556D02*
X0276645Y0162556D01*
X0276714Y0162554D01*
X0276783Y0162548D01*
X0276851Y0162539D01*
X0276918Y0162526D01*
X0276985Y0162509D01*
X0277051Y0162488D01*
X0277115Y0162464D01*
X0277178Y0162436D01*
X0277240Y0162405D01*
X0277300Y0162371D01*
X0277357Y0162333D01*
X0277413Y0162292D01*
X0277466Y0162249D01*
X0277517Y0162202D01*
X0277565Y0162153D01*
X0277610Y0162101D01*
X0277652Y0162046D01*
X0277691Y0161990D01*
X0277728Y0161931D01*
X0277760Y0161870D01*
X0277790Y0161808D01*
X0277816Y0161744D01*
X0277838Y0161679D01*
X0277857Y0161613D01*
X0277872Y0161546D01*
X0277883Y0161478D01*
X0277891Y0161409D01*
X0277895Y0161340D01*
X0277895Y0161272D01*
X0277891Y0161203D01*
X0277883Y0161134D01*
X0277872Y0161066D01*
X0277857Y0160999D01*
X0277838Y0160933D01*
X0277816Y0160868D01*
X0277790Y0160804D01*
X0277760Y0160742D01*
X0277728Y0160681D01*
X0277691Y0160622D01*
X0277652Y0160566D01*
X0277610Y0160511D01*
X0277565Y0160459D01*
X0277517Y0160410D01*
X0277466Y0160363D01*
X0277413Y0160320D01*
X0277357Y0160279D01*
X0277300Y0160241D01*
X0277240Y0160207D01*
X0277178Y0160176D01*
X0277115Y0160148D01*
X0277051Y0160124D01*
X0276985Y0160103D01*
X0276918Y0160086D01*
X0276851Y0160073D01*
X0276783Y0160064D01*
X0276714Y0160058D01*
X0276645Y0160056D01*
X0275395Y0160056D01*
X0275395Y0158056D02*
X0275395Y0162556D01*
X0279670Y0162556D02*
X0279670Y0160556D01*
X0281170Y0160556D01*
X0281230Y0160554D01*
X0281291Y0160549D01*
X0281350Y0160540D01*
X0281409Y0160527D01*
X0281468Y0160511D01*
X0281525Y0160491D01*
X0281580Y0160468D01*
X0281635Y0160441D01*
X0281687Y0160412D01*
X0281738Y0160379D01*
X0281787Y0160343D01*
X0281833Y0160305D01*
X0281877Y0160263D01*
X0281919Y0160219D01*
X0281957Y0160173D01*
X0281993Y0160124D01*
X0282026Y0160073D01*
X0282055Y0160021D01*
X0282082Y0159966D01*
X0282105Y0159911D01*
X0282125Y0159854D01*
X0282141Y0159795D01*
X0282154Y0159736D01*
X0282163Y0159677D01*
X0282168Y0159616D01*
X0282170Y0159556D01*
X0282170Y0159056D01*
X0282168Y0158996D01*
X0282163Y0158935D01*
X0282154Y0158876D01*
X0282141Y0158817D01*
X0282125Y0158758D01*
X0282105Y0158701D01*
X0282082Y0158646D01*
X0282055Y0158591D01*
X0282026Y0158539D01*
X0281993Y0158488D01*
X0281957Y0158439D01*
X0281919Y0158393D01*
X0281877Y0158349D01*
X0281833Y0158307D01*
X0281787Y0158269D01*
X0281738Y0158233D01*
X0281687Y0158200D01*
X0281635Y0158171D01*
X0281580Y0158144D01*
X0281525Y0158121D01*
X0281468Y0158101D01*
X0281409Y0158085D01*
X0281350Y0158072D01*
X0281291Y0158063D01*
X0281230Y0158058D01*
X0281170Y0158056D01*
X0279670Y0158056D01*
X0279275Y0158550D02*
X0279275Y0154050D01*
X0279275Y0156050D02*
X0280525Y0156050D01*
X0280594Y0156052D01*
X0280663Y0156058D01*
X0280731Y0156067D01*
X0280798Y0156080D01*
X0280865Y0156097D01*
X0280931Y0156118D01*
X0280995Y0156142D01*
X0281058Y0156170D01*
X0281120Y0156201D01*
X0281180Y0156235D01*
X0281237Y0156273D01*
X0281293Y0156314D01*
X0281346Y0156357D01*
X0281397Y0156404D01*
X0281445Y0156453D01*
X0281490Y0156505D01*
X0281532Y0156560D01*
X0281571Y0156616D01*
X0281608Y0156675D01*
X0281640Y0156736D01*
X0281670Y0156798D01*
X0281696Y0156862D01*
X0281718Y0156927D01*
X0281737Y0156993D01*
X0281752Y0157060D01*
X0281763Y0157128D01*
X0281771Y0157197D01*
X0281775Y0157266D01*
X0281775Y0157334D01*
X0281771Y0157403D01*
X0281763Y0157472D01*
X0281752Y0157540D01*
X0281737Y0157607D01*
X0281718Y0157673D01*
X0281696Y0157738D01*
X0281670Y0157802D01*
X0281640Y0157864D01*
X0281608Y0157925D01*
X0281571Y0157984D01*
X0281532Y0158040D01*
X0281490Y0158095D01*
X0281445Y0158147D01*
X0281397Y0158196D01*
X0281346Y0158243D01*
X0281293Y0158286D01*
X0281237Y0158327D01*
X0281180Y0158365D01*
X0281120Y0158399D01*
X0281058Y0158430D01*
X0280995Y0158458D01*
X0280931Y0158482D01*
X0280865Y0158503D01*
X0280798Y0158520D01*
X0280731Y0158533D01*
X0280663Y0158542D01*
X0280594Y0158548D01*
X0280525Y0158550D01*
X0279275Y0158550D01*
X0276921Y0158550D02*
X0276921Y0155050D01*
X0276919Y0154990D01*
X0276914Y0154929D01*
X0276905Y0154870D01*
X0276892Y0154811D01*
X0276876Y0154752D01*
X0276856Y0154695D01*
X0276833Y0154640D01*
X0276806Y0154585D01*
X0276777Y0154533D01*
X0276744Y0154482D01*
X0276708Y0154433D01*
X0276670Y0154387D01*
X0276628Y0154343D01*
X0276584Y0154301D01*
X0276538Y0154263D01*
X0276489Y0154227D01*
X0276438Y0154194D01*
X0276386Y0154165D01*
X0276331Y0154138D01*
X0276276Y0154115D01*
X0276219Y0154095D01*
X0276160Y0154079D01*
X0276101Y0154066D01*
X0276042Y0154057D01*
X0275981Y0154052D01*
X0275921Y0154050D01*
X0275421Y0154050D01*
X0283550Y0154050D02*
X0284800Y0154050D01*
X0284869Y0154052D01*
X0284938Y0154058D01*
X0285006Y0154067D01*
X0285073Y0154080D01*
X0285140Y0154097D01*
X0285206Y0154118D01*
X0285270Y0154142D01*
X0285333Y0154170D01*
X0285395Y0154201D01*
X0285455Y0154235D01*
X0285512Y0154273D01*
X0285568Y0154314D01*
X0285621Y0154357D01*
X0285672Y0154404D01*
X0285720Y0154453D01*
X0285765Y0154505D01*
X0285807Y0154560D01*
X0285846Y0154616D01*
X0285883Y0154675D01*
X0285915Y0154736D01*
X0285945Y0154798D01*
X0285971Y0154862D01*
X0285993Y0154927D01*
X0286012Y0154993D01*
X0286027Y0155060D01*
X0286038Y0155128D01*
X0286046Y0155197D01*
X0286050Y0155266D01*
X0286050Y0155334D01*
X0286046Y0155403D01*
X0286038Y0155472D01*
X0286027Y0155540D01*
X0286012Y0155607D01*
X0285993Y0155673D01*
X0285971Y0155738D01*
X0285945Y0155802D01*
X0285915Y0155864D01*
X0285883Y0155925D01*
X0285846Y0155984D01*
X0285807Y0156040D01*
X0285765Y0156095D01*
X0285720Y0156147D01*
X0285672Y0156196D01*
X0285621Y0156243D01*
X0285568Y0156286D01*
X0285512Y0156327D01*
X0285455Y0156365D01*
X0285395Y0156399D01*
X0285333Y0156430D01*
X0285270Y0156458D01*
X0285206Y0156482D01*
X0285140Y0156503D01*
X0285073Y0156520D01*
X0285006Y0156533D01*
X0284938Y0156542D01*
X0284869Y0156548D01*
X0284800Y0156550D01*
X0285050Y0156550D02*
X0284050Y0156550D01*
X0285050Y0156550D02*
X0285112Y0156552D01*
X0285173Y0156558D01*
X0285234Y0156567D01*
X0285294Y0156580D01*
X0285353Y0156597D01*
X0285411Y0156618D01*
X0285468Y0156642D01*
X0285523Y0156669D01*
X0285576Y0156700D01*
X0285628Y0156734D01*
X0285677Y0156771D01*
X0285724Y0156811D01*
X0285768Y0156854D01*
X0285809Y0156899D01*
X0285848Y0156947D01*
X0285884Y0156998D01*
X0285916Y0157050D01*
X0285945Y0157104D01*
X0285971Y0157160D01*
X0285993Y0157218D01*
X0286012Y0157276D01*
X0286027Y0157336D01*
X0286038Y0157397D01*
X0286046Y0157458D01*
X0286050Y0157519D01*
X0286050Y0157581D01*
X0286046Y0157642D01*
X0286038Y0157703D01*
X0286027Y0157764D01*
X0286012Y0157824D01*
X0285993Y0157882D01*
X0285971Y0157940D01*
X0285945Y0157996D01*
X0285916Y0158050D01*
X0285884Y0158102D01*
X0285848Y0158153D01*
X0285809Y0158201D01*
X0285768Y0158246D01*
X0285724Y0158289D01*
X0285677Y0158329D01*
X0285628Y0158366D01*
X0285576Y0158400D01*
X0285523Y0158431D01*
X0285468Y0158458D01*
X0285411Y0158482D01*
X0285353Y0158503D01*
X0285294Y0158520D01*
X0285234Y0158533D01*
X0285173Y0158542D01*
X0285112Y0158548D01*
X0285050Y0158550D01*
X0283550Y0158550D01*
X0282170Y0162556D02*
X0279670Y0162556D01*
D13*
X0148595Y0203402D02*
X0148595Y0205446D01*
X0148595Y0207302D02*
X0143995Y0207302D01*
X0143995Y0209346D01*
X0143995Y0211193D02*
X0143995Y0212471D01*
X0143997Y0212540D01*
X0144002Y0212609D01*
X0144012Y0212678D01*
X0144025Y0212746D01*
X0144042Y0212813D01*
X0144062Y0212879D01*
X0144086Y0212944D01*
X0144113Y0213008D01*
X0144144Y0213070D01*
X0144178Y0213130D01*
X0144215Y0213188D01*
X0144256Y0213244D01*
X0144299Y0213298D01*
X0144345Y0213350D01*
X0144394Y0213399D01*
X0144446Y0213445D01*
X0144500Y0213488D01*
X0144556Y0213529D01*
X0144614Y0213566D01*
X0144674Y0213600D01*
X0144736Y0213631D01*
X0144800Y0213658D01*
X0144865Y0213682D01*
X0144931Y0213702D01*
X0144998Y0213719D01*
X0145066Y0213732D01*
X0145135Y0213742D01*
X0145204Y0213747D01*
X0145273Y0213749D01*
X0145273Y0213748D02*
X0147318Y0213748D01*
X0147318Y0213749D02*
X0147387Y0213747D01*
X0147456Y0213742D01*
X0147525Y0213732D01*
X0147593Y0213719D01*
X0147660Y0213702D01*
X0147726Y0213682D01*
X0147791Y0213658D01*
X0147855Y0213631D01*
X0147917Y0213600D01*
X0147977Y0213566D01*
X0148035Y0213529D01*
X0148091Y0213488D01*
X0148145Y0213445D01*
X0148197Y0213399D01*
X0148246Y0213350D01*
X0148292Y0213298D01*
X0148335Y0213244D01*
X0148376Y0213188D01*
X0148413Y0213130D01*
X0148447Y0213070D01*
X0148478Y0213008D01*
X0148505Y0212944D01*
X0148529Y0212879D01*
X0148549Y0212813D01*
X0148566Y0212746D01*
X0148579Y0212678D01*
X0148589Y0212609D01*
X0148594Y0212540D01*
X0148596Y0212471D01*
X0148595Y0212471D02*
X0148595Y0211193D01*
X0143995Y0211193D01*
X0146040Y0208835D02*
X0146040Y0207302D01*
X0148595Y0207302D02*
X0148595Y0209346D01*
X0148595Y0203402D02*
X0143995Y0203402D01*
X0140763Y0211433D02*
X0140840Y0211506D01*
X0140915Y0211581D01*
X0140986Y0211659D01*
X0141055Y0211740D01*
X0141121Y0211823D01*
X0141184Y0211908D01*
X0141243Y0211996D01*
X0141300Y0212085D01*
X0141353Y0212177D01*
X0141403Y0212271D01*
X0141449Y0212366D01*
X0141492Y0212463D01*
X0141531Y0212561D01*
X0141567Y0212661D01*
X0141599Y0212762D01*
X0141627Y0212864D01*
X0141652Y0212967D01*
X0141673Y0213071D01*
X0141690Y0213176D01*
X0141704Y0213281D01*
X0141713Y0213386D01*
X0141719Y0213492D01*
X0141721Y0213598D01*
X0141719Y0213704D01*
X0141713Y0213810D01*
X0141704Y0213915D01*
X0141690Y0214020D01*
X0141673Y0214125D01*
X0141652Y0214229D01*
X0141627Y0214332D01*
X0141599Y0214434D01*
X0141567Y0214535D01*
X0141531Y0214635D01*
X0141492Y0214733D01*
X0141449Y0214830D01*
X0141403Y0214925D01*
X0141353Y0215019D01*
X0141300Y0215111D01*
X0141243Y0215200D01*
X0141184Y0215288D01*
X0141121Y0215373D01*
X0141055Y0215456D01*
X0140986Y0215537D01*
X0140915Y0215615D01*
X0140840Y0215690D01*
X0140763Y0215763D01*
X0136827Y0215763D02*
X0136750Y0215690D01*
X0136675Y0215615D01*
X0136604Y0215537D01*
X0136535Y0215456D01*
X0136469Y0215373D01*
X0136406Y0215288D01*
X0136347Y0215200D01*
X0136290Y0215111D01*
X0136237Y0215019D01*
X0136187Y0214925D01*
X0136141Y0214830D01*
X0136098Y0214733D01*
X0136059Y0214635D01*
X0136023Y0214535D01*
X0135991Y0214434D01*
X0135963Y0214332D01*
X0135938Y0214229D01*
X0135917Y0214125D01*
X0135900Y0214020D01*
X0135886Y0213915D01*
X0135877Y0213810D01*
X0135871Y0213704D01*
X0135869Y0213598D01*
X0135871Y0213492D01*
X0135877Y0213386D01*
X0135886Y0213281D01*
X0135900Y0213176D01*
X0135917Y0213071D01*
X0135938Y0212967D01*
X0135963Y0212864D01*
X0135991Y0212762D01*
X0136023Y0212661D01*
X0136059Y0212561D01*
X0136098Y0212463D01*
X0136141Y0212366D01*
X0136187Y0212271D01*
X0136237Y0212177D01*
X0136290Y0212085D01*
X0136347Y0211996D01*
X0136406Y0211908D01*
X0136469Y0211823D01*
X0136535Y0211740D01*
X0136604Y0211659D01*
X0136675Y0211581D01*
X0136750Y0211506D01*
X0136827Y0211433D01*
X0132847Y0211372D02*
X0128247Y0211372D01*
X0128247Y0212650D01*
X0128249Y0212720D01*
X0128255Y0212791D01*
X0128264Y0212860D01*
X0128278Y0212929D01*
X0128295Y0212998D01*
X0128316Y0213065D01*
X0128341Y0213131D01*
X0128369Y0213195D01*
X0128401Y0213258D01*
X0128436Y0213319D01*
X0128475Y0213378D01*
X0128516Y0213435D01*
X0128561Y0213489D01*
X0128609Y0213541D01*
X0128659Y0213590D01*
X0128713Y0213637D01*
X0128768Y0213680D01*
X0128826Y0213720D01*
X0128886Y0213757D01*
X0128948Y0213790D01*
X0129012Y0213820D01*
X0129077Y0213847D01*
X0129143Y0213870D01*
X0129211Y0213889D01*
X0129280Y0213904D01*
X0129349Y0213916D01*
X0129419Y0213924D01*
X0129490Y0213928D01*
X0129560Y0213928D01*
X0129631Y0213924D01*
X0129701Y0213916D01*
X0129770Y0213904D01*
X0129839Y0213889D01*
X0129907Y0213870D01*
X0129973Y0213847D01*
X0130038Y0213820D01*
X0130102Y0213790D01*
X0130164Y0213757D01*
X0130224Y0213720D01*
X0130282Y0213680D01*
X0130337Y0213637D01*
X0130391Y0213590D01*
X0130441Y0213541D01*
X0130489Y0213489D01*
X0130534Y0213435D01*
X0130575Y0213378D01*
X0130614Y0213319D01*
X0130649Y0213258D01*
X0130681Y0213195D01*
X0130709Y0213131D01*
X0130734Y0213065D01*
X0130755Y0212998D01*
X0130772Y0212929D01*
X0130786Y0212860D01*
X0130795Y0212791D01*
X0130801Y0212720D01*
X0130803Y0212650D01*
X0130803Y0211372D01*
X0130803Y0212905D02*
X0132847Y0213927D01*
X0131825Y0215843D02*
X0128247Y0216865D01*
X0130803Y0217632D02*
X0132847Y0217632D01*
X0131825Y0218398D02*
X0131825Y0215843D01*
X0143995Y0216865D02*
X0147573Y0215843D01*
X0147573Y0218398D01*
X0146551Y0217632D02*
X0148595Y0217632D01*
X0148595Y0223087D02*
X0143995Y0223087D01*
X0143995Y0226987D02*
X0143995Y0229031D01*
X0143995Y0230878D02*
X0143995Y0232156D01*
X0143997Y0232225D01*
X0144002Y0232294D01*
X0144012Y0232363D01*
X0144025Y0232431D01*
X0144042Y0232498D01*
X0144062Y0232564D01*
X0144086Y0232629D01*
X0144113Y0232693D01*
X0144144Y0232755D01*
X0144178Y0232815D01*
X0144215Y0232873D01*
X0144256Y0232929D01*
X0144299Y0232983D01*
X0144345Y0233035D01*
X0144394Y0233084D01*
X0144446Y0233130D01*
X0144500Y0233173D01*
X0144556Y0233214D01*
X0144614Y0233251D01*
X0144674Y0233285D01*
X0144736Y0233316D01*
X0144800Y0233343D01*
X0144865Y0233367D01*
X0144931Y0233387D01*
X0144998Y0233404D01*
X0145066Y0233417D01*
X0145135Y0233427D01*
X0145204Y0233432D01*
X0145273Y0233434D01*
X0145273Y0233433D02*
X0147318Y0233433D01*
X0147318Y0233434D02*
X0147387Y0233432D01*
X0147456Y0233427D01*
X0147525Y0233417D01*
X0147593Y0233404D01*
X0147660Y0233387D01*
X0147726Y0233367D01*
X0147791Y0233343D01*
X0147855Y0233316D01*
X0147917Y0233285D01*
X0147977Y0233251D01*
X0148035Y0233214D01*
X0148091Y0233173D01*
X0148145Y0233130D01*
X0148197Y0233084D01*
X0148246Y0233035D01*
X0148292Y0232983D01*
X0148335Y0232929D01*
X0148376Y0232873D01*
X0148413Y0232815D01*
X0148447Y0232755D01*
X0148478Y0232693D01*
X0148505Y0232629D01*
X0148529Y0232564D01*
X0148549Y0232498D01*
X0148566Y0232431D01*
X0148579Y0232363D01*
X0148589Y0232294D01*
X0148594Y0232225D01*
X0148596Y0232156D01*
X0148595Y0232156D02*
X0148595Y0230878D01*
X0143995Y0230878D01*
X0146040Y0228520D02*
X0146040Y0226987D01*
X0143995Y0226987D02*
X0148595Y0226987D01*
X0148595Y0229031D01*
X0148595Y0225131D02*
X0148595Y0223087D01*
X0140763Y0231118D02*
X0140840Y0231191D01*
X0140915Y0231266D01*
X0140986Y0231344D01*
X0141055Y0231425D01*
X0141121Y0231508D01*
X0141184Y0231593D01*
X0141243Y0231681D01*
X0141300Y0231770D01*
X0141353Y0231862D01*
X0141403Y0231956D01*
X0141449Y0232051D01*
X0141492Y0232148D01*
X0141531Y0232246D01*
X0141567Y0232346D01*
X0141599Y0232447D01*
X0141627Y0232549D01*
X0141652Y0232652D01*
X0141673Y0232756D01*
X0141690Y0232861D01*
X0141704Y0232966D01*
X0141713Y0233071D01*
X0141719Y0233177D01*
X0141721Y0233283D01*
X0141719Y0233389D01*
X0141713Y0233495D01*
X0141704Y0233600D01*
X0141690Y0233705D01*
X0141673Y0233810D01*
X0141652Y0233914D01*
X0141627Y0234017D01*
X0141599Y0234119D01*
X0141567Y0234220D01*
X0141531Y0234320D01*
X0141492Y0234418D01*
X0141449Y0234515D01*
X0141403Y0234610D01*
X0141353Y0234704D01*
X0141300Y0234796D01*
X0141243Y0234885D01*
X0141184Y0234973D01*
X0141121Y0235058D01*
X0141055Y0235141D01*
X0140986Y0235222D01*
X0140915Y0235300D01*
X0140840Y0235375D01*
X0140763Y0235448D01*
X0136827Y0235448D02*
X0136750Y0235375D01*
X0136675Y0235300D01*
X0136604Y0235222D01*
X0136535Y0235141D01*
X0136469Y0235058D01*
X0136406Y0234973D01*
X0136347Y0234885D01*
X0136290Y0234796D01*
X0136237Y0234704D01*
X0136187Y0234610D01*
X0136141Y0234515D01*
X0136098Y0234418D01*
X0136059Y0234320D01*
X0136023Y0234220D01*
X0135991Y0234119D01*
X0135963Y0234017D01*
X0135938Y0233914D01*
X0135917Y0233810D01*
X0135900Y0233705D01*
X0135886Y0233600D01*
X0135877Y0233495D01*
X0135871Y0233389D01*
X0135869Y0233283D01*
X0135871Y0233177D01*
X0135877Y0233071D01*
X0135886Y0232966D01*
X0135900Y0232861D01*
X0135917Y0232756D01*
X0135938Y0232652D01*
X0135963Y0232549D01*
X0135991Y0232447D01*
X0136023Y0232346D01*
X0136059Y0232246D01*
X0136098Y0232148D01*
X0136141Y0232051D01*
X0136187Y0231956D01*
X0136237Y0231862D01*
X0136290Y0231770D01*
X0136347Y0231681D01*
X0136406Y0231593D01*
X0136469Y0231508D01*
X0136535Y0231425D01*
X0136604Y0231344D01*
X0136675Y0231266D01*
X0136750Y0231191D01*
X0136827Y0231118D01*
X0132847Y0231057D02*
X0128247Y0231057D01*
X0128247Y0232335D01*
X0128249Y0232405D01*
X0128255Y0232476D01*
X0128264Y0232545D01*
X0128278Y0232614D01*
X0128295Y0232683D01*
X0128316Y0232750D01*
X0128341Y0232816D01*
X0128369Y0232880D01*
X0128401Y0232943D01*
X0128436Y0233004D01*
X0128475Y0233063D01*
X0128516Y0233120D01*
X0128561Y0233174D01*
X0128609Y0233226D01*
X0128659Y0233275D01*
X0128713Y0233322D01*
X0128768Y0233365D01*
X0128826Y0233405D01*
X0128886Y0233442D01*
X0128948Y0233475D01*
X0129012Y0233505D01*
X0129077Y0233532D01*
X0129143Y0233555D01*
X0129211Y0233574D01*
X0129280Y0233589D01*
X0129349Y0233601D01*
X0129419Y0233609D01*
X0129490Y0233613D01*
X0129560Y0233613D01*
X0129631Y0233609D01*
X0129701Y0233601D01*
X0129770Y0233589D01*
X0129839Y0233574D01*
X0129907Y0233555D01*
X0129973Y0233532D01*
X0130038Y0233505D01*
X0130102Y0233475D01*
X0130164Y0233442D01*
X0130224Y0233405D01*
X0130282Y0233365D01*
X0130337Y0233322D01*
X0130391Y0233275D01*
X0130441Y0233226D01*
X0130489Y0233174D01*
X0130534Y0233120D01*
X0130575Y0233063D01*
X0130614Y0233004D01*
X0130649Y0232943D01*
X0130681Y0232880D01*
X0130709Y0232816D01*
X0130734Y0232750D01*
X0130755Y0232683D01*
X0130772Y0232614D01*
X0130786Y0232545D01*
X0130795Y0232476D01*
X0130801Y0232405D01*
X0130803Y0232335D01*
X0130803Y0231057D01*
X0130803Y0232590D02*
X0132847Y0233612D01*
X0132847Y0235528D02*
X0132847Y0236806D01*
X0132845Y0236876D01*
X0132839Y0236947D01*
X0132830Y0237016D01*
X0132816Y0237085D01*
X0132799Y0237154D01*
X0132778Y0237221D01*
X0132753Y0237287D01*
X0132725Y0237351D01*
X0132693Y0237414D01*
X0132658Y0237475D01*
X0132619Y0237534D01*
X0132578Y0237591D01*
X0132533Y0237645D01*
X0132485Y0237697D01*
X0132435Y0237746D01*
X0132381Y0237793D01*
X0132326Y0237836D01*
X0132268Y0237876D01*
X0132208Y0237913D01*
X0132146Y0237946D01*
X0132082Y0237976D01*
X0132017Y0238003D01*
X0131951Y0238026D01*
X0131883Y0238045D01*
X0131814Y0238060D01*
X0131745Y0238072D01*
X0131675Y0238080D01*
X0131604Y0238084D01*
X0131534Y0238084D01*
X0131463Y0238080D01*
X0131393Y0238072D01*
X0131324Y0238060D01*
X0131255Y0238045D01*
X0131187Y0238026D01*
X0131121Y0238003D01*
X0131056Y0237976D01*
X0130992Y0237946D01*
X0130930Y0237913D01*
X0130870Y0237876D01*
X0130812Y0237836D01*
X0130757Y0237793D01*
X0130703Y0237746D01*
X0130653Y0237697D01*
X0130605Y0237645D01*
X0130560Y0237591D01*
X0130519Y0237534D01*
X0130480Y0237475D01*
X0130445Y0237414D01*
X0130413Y0237351D01*
X0130385Y0237287D01*
X0130360Y0237221D01*
X0130339Y0237154D01*
X0130322Y0237085D01*
X0130308Y0237016D01*
X0130299Y0236947D01*
X0130293Y0236876D01*
X0130291Y0236806D01*
X0130292Y0237061D02*
X0130292Y0236039D01*
X0130291Y0237061D02*
X0130289Y0237124D01*
X0130283Y0237187D01*
X0130274Y0237249D01*
X0130260Y0237310D01*
X0130243Y0237371D01*
X0130222Y0237430D01*
X0130197Y0237488D01*
X0130169Y0237545D01*
X0130138Y0237599D01*
X0130103Y0237651D01*
X0130065Y0237702D01*
X0130024Y0237750D01*
X0129980Y0237795D01*
X0129934Y0237837D01*
X0129885Y0237877D01*
X0129834Y0237913D01*
X0129780Y0237946D01*
X0129725Y0237976D01*
X0129667Y0238002D01*
X0129609Y0238025D01*
X0129549Y0238044D01*
X0129488Y0238059D01*
X0129426Y0238071D01*
X0129363Y0238079D01*
X0129300Y0238083D01*
X0129238Y0238083D01*
X0129175Y0238079D01*
X0129112Y0238071D01*
X0129050Y0238059D01*
X0128989Y0238044D01*
X0128929Y0238025D01*
X0128871Y0238002D01*
X0128813Y0237976D01*
X0128758Y0237946D01*
X0128704Y0237913D01*
X0128653Y0237877D01*
X0128604Y0237837D01*
X0128558Y0237795D01*
X0128514Y0237750D01*
X0128473Y0237702D01*
X0128435Y0237651D01*
X0128400Y0237599D01*
X0128369Y0237545D01*
X0128341Y0237488D01*
X0128316Y0237430D01*
X0128295Y0237371D01*
X0128278Y0237310D01*
X0128264Y0237249D01*
X0128255Y0237187D01*
X0128249Y0237124D01*
X0128247Y0237061D01*
X0128247Y0235528D01*
X0143995Y0235528D02*
X0143995Y0237061D01*
X0143997Y0237124D01*
X0144003Y0237187D01*
X0144012Y0237249D01*
X0144026Y0237310D01*
X0144043Y0237371D01*
X0144064Y0237430D01*
X0144089Y0237488D01*
X0144117Y0237545D01*
X0144148Y0237599D01*
X0144183Y0237651D01*
X0144221Y0237702D01*
X0144262Y0237750D01*
X0144306Y0237795D01*
X0144352Y0237837D01*
X0144401Y0237877D01*
X0144452Y0237913D01*
X0144506Y0237946D01*
X0144561Y0237976D01*
X0144619Y0238002D01*
X0144677Y0238025D01*
X0144737Y0238044D01*
X0144798Y0238059D01*
X0144860Y0238071D01*
X0144923Y0238079D01*
X0144986Y0238083D01*
X0145048Y0238083D01*
X0145111Y0238079D01*
X0145174Y0238071D01*
X0145236Y0238059D01*
X0145297Y0238044D01*
X0145357Y0238025D01*
X0145415Y0238002D01*
X0145473Y0237976D01*
X0145528Y0237946D01*
X0145582Y0237913D01*
X0145633Y0237877D01*
X0145682Y0237837D01*
X0145728Y0237795D01*
X0145772Y0237750D01*
X0145813Y0237702D01*
X0145851Y0237651D01*
X0145886Y0237599D01*
X0145917Y0237545D01*
X0145945Y0237488D01*
X0145970Y0237430D01*
X0145991Y0237371D01*
X0146008Y0237310D01*
X0146022Y0237249D01*
X0146031Y0237187D01*
X0146037Y0237124D01*
X0146039Y0237061D01*
X0146040Y0237061D02*
X0146040Y0236039D01*
X0146039Y0236806D02*
X0146041Y0236876D01*
X0146047Y0236947D01*
X0146056Y0237016D01*
X0146070Y0237085D01*
X0146087Y0237154D01*
X0146108Y0237221D01*
X0146133Y0237287D01*
X0146161Y0237351D01*
X0146193Y0237414D01*
X0146228Y0237475D01*
X0146267Y0237534D01*
X0146308Y0237591D01*
X0146353Y0237645D01*
X0146401Y0237697D01*
X0146451Y0237746D01*
X0146505Y0237793D01*
X0146560Y0237836D01*
X0146618Y0237876D01*
X0146678Y0237913D01*
X0146740Y0237946D01*
X0146804Y0237976D01*
X0146869Y0238003D01*
X0146935Y0238026D01*
X0147003Y0238045D01*
X0147072Y0238060D01*
X0147141Y0238072D01*
X0147211Y0238080D01*
X0147282Y0238084D01*
X0147352Y0238084D01*
X0147423Y0238080D01*
X0147493Y0238072D01*
X0147562Y0238060D01*
X0147631Y0238045D01*
X0147699Y0238026D01*
X0147765Y0238003D01*
X0147830Y0237976D01*
X0147894Y0237946D01*
X0147956Y0237913D01*
X0148016Y0237876D01*
X0148074Y0237836D01*
X0148129Y0237793D01*
X0148183Y0237746D01*
X0148233Y0237697D01*
X0148281Y0237645D01*
X0148326Y0237591D01*
X0148367Y0237534D01*
X0148406Y0237475D01*
X0148441Y0237414D01*
X0148473Y0237351D01*
X0148501Y0237287D01*
X0148526Y0237221D01*
X0148547Y0237154D01*
X0148564Y0237085D01*
X0148578Y0237016D01*
X0148587Y0236947D01*
X0148593Y0236876D01*
X0148595Y0236806D01*
X0148595Y0235528D01*
X0148595Y0242772D02*
X0143995Y0242772D01*
X0143995Y0246672D02*
X0143995Y0248716D01*
X0143995Y0250563D02*
X0143995Y0251841D01*
X0143995Y0250563D02*
X0148595Y0250563D01*
X0148595Y0251841D01*
X0148596Y0251841D02*
X0148594Y0251910D01*
X0148589Y0251979D01*
X0148579Y0252048D01*
X0148566Y0252116D01*
X0148549Y0252183D01*
X0148529Y0252249D01*
X0148505Y0252314D01*
X0148478Y0252378D01*
X0148447Y0252440D01*
X0148413Y0252500D01*
X0148376Y0252558D01*
X0148335Y0252614D01*
X0148292Y0252668D01*
X0148246Y0252720D01*
X0148197Y0252769D01*
X0148145Y0252815D01*
X0148091Y0252858D01*
X0148035Y0252899D01*
X0147977Y0252936D01*
X0147917Y0252970D01*
X0147855Y0253001D01*
X0147791Y0253028D01*
X0147726Y0253052D01*
X0147660Y0253072D01*
X0147593Y0253089D01*
X0147525Y0253102D01*
X0147456Y0253112D01*
X0147387Y0253117D01*
X0147318Y0253119D01*
X0145273Y0253119D01*
X0145204Y0253117D01*
X0145135Y0253112D01*
X0145066Y0253102D01*
X0144998Y0253089D01*
X0144931Y0253072D01*
X0144865Y0253052D01*
X0144800Y0253028D01*
X0144736Y0253001D01*
X0144674Y0252970D01*
X0144614Y0252936D01*
X0144556Y0252899D01*
X0144500Y0252858D01*
X0144446Y0252815D01*
X0144394Y0252769D01*
X0144345Y0252720D01*
X0144299Y0252668D01*
X0144256Y0252614D01*
X0144215Y0252558D01*
X0144178Y0252500D01*
X0144144Y0252440D01*
X0144113Y0252378D01*
X0144086Y0252314D01*
X0144062Y0252249D01*
X0144042Y0252183D01*
X0144025Y0252116D01*
X0144012Y0252048D01*
X0144002Y0251979D01*
X0143997Y0251910D01*
X0143995Y0251841D01*
X0146040Y0248205D02*
X0146040Y0246672D01*
X0143995Y0246672D02*
X0148595Y0246672D01*
X0148595Y0248716D01*
X0148595Y0244816D02*
X0148595Y0242772D01*
X0140763Y0250804D02*
X0140840Y0250877D01*
X0140915Y0250952D01*
X0140986Y0251030D01*
X0141055Y0251111D01*
X0141121Y0251194D01*
X0141184Y0251279D01*
X0141243Y0251367D01*
X0141300Y0251456D01*
X0141353Y0251548D01*
X0141403Y0251642D01*
X0141449Y0251737D01*
X0141492Y0251834D01*
X0141531Y0251932D01*
X0141567Y0252032D01*
X0141599Y0252133D01*
X0141627Y0252235D01*
X0141652Y0252338D01*
X0141673Y0252442D01*
X0141690Y0252547D01*
X0141704Y0252652D01*
X0141713Y0252757D01*
X0141719Y0252863D01*
X0141721Y0252969D01*
X0141719Y0253075D01*
X0141713Y0253181D01*
X0141704Y0253286D01*
X0141690Y0253391D01*
X0141673Y0253496D01*
X0141652Y0253600D01*
X0141627Y0253703D01*
X0141599Y0253805D01*
X0141567Y0253906D01*
X0141531Y0254006D01*
X0141492Y0254104D01*
X0141449Y0254201D01*
X0141403Y0254296D01*
X0141353Y0254390D01*
X0141300Y0254482D01*
X0141243Y0254571D01*
X0141184Y0254659D01*
X0141121Y0254744D01*
X0141055Y0254827D01*
X0140986Y0254908D01*
X0140915Y0254986D01*
X0140840Y0255061D01*
X0140763Y0255134D01*
X0136827Y0255134D02*
X0136750Y0255061D01*
X0136675Y0254986D01*
X0136604Y0254908D01*
X0136535Y0254827D01*
X0136469Y0254744D01*
X0136406Y0254659D01*
X0136347Y0254571D01*
X0136290Y0254482D01*
X0136237Y0254390D01*
X0136187Y0254296D01*
X0136141Y0254201D01*
X0136098Y0254104D01*
X0136059Y0254006D01*
X0136023Y0253906D01*
X0135991Y0253805D01*
X0135963Y0253703D01*
X0135938Y0253600D01*
X0135917Y0253496D01*
X0135900Y0253391D01*
X0135886Y0253286D01*
X0135877Y0253181D01*
X0135871Y0253075D01*
X0135869Y0252969D01*
X0135871Y0252863D01*
X0135877Y0252757D01*
X0135886Y0252652D01*
X0135900Y0252547D01*
X0135917Y0252442D01*
X0135938Y0252338D01*
X0135963Y0252235D01*
X0135991Y0252133D01*
X0136023Y0252032D01*
X0136059Y0251932D01*
X0136098Y0251834D01*
X0136141Y0251737D01*
X0136187Y0251642D01*
X0136237Y0251548D01*
X0136290Y0251456D01*
X0136347Y0251367D01*
X0136406Y0251279D01*
X0136469Y0251194D01*
X0136535Y0251111D01*
X0136604Y0251030D01*
X0136675Y0250952D01*
X0136750Y0250877D01*
X0136827Y0250804D01*
X0132847Y0250742D02*
X0128247Y0250742D01*
X0128247Y0252020D01*
X0128249Y0252090D01*
X0128255Y0252161D01*
X0128264Y0252230D01*
X0128278Y0252299D01*
X0128295Y0252368D01*
X0128316Y0252435D01*
X0128341Y0252501D01*
X0128369Y0252565D01*
X0128401Y0252628D01*
X0128436Y0252689D01*
X0128475Y0252748D01*
X0128516Y0252805D01*
X0128561Y0252859D01*
X0128609Y0252911D01*
X0128659Y0252960D01*
X0128713Y0253007D01*
X0128768Y0253050D01*
X0128826Y0253090D01*
X0128886Y0253127D01*
X0128948Y0253160D01*
X0129012Y0253190D01*
X0129077Y0253217D01*
X0129143Y0253240D01*
X0129211Y0253259D01*
X0129280Y0253274D01*
X0129349Y0253286D01*
X0129419Y0253294D01*
X0129490Y0253298D01*
X0129560Y0253298D01*
X0129631Y0253294D01*
X0129701Y0253286D01*
X0129770Y0253274D01*
X0129839Y0253259D01*
X0129907Y0253240D01*
X0129973Y0253217D01*
X0130038Y0253190D01*
X0130102Y0253160D01*
X0130164Y0253127D01*
X0130224Y0253090D01*
X0130282Y0253050D01*
X0130337Y0253007D01*
X0130391Y0252960D01*
X0130441Y0252911D01*
X0130489Y0252859D01*
X0130534Y0252805D01*
X0130575Y0252748D01*
X0130614Y0252689D01*
X0130649Y0252628D01*
X0130681Y0252565D01*
X0130709Y0252501D01*
X0130734Y0252435D01*
X0130755Y0252368D01*
X0130772Y0252299D01*
X0130786Y0252230D01*
X0130795Y0252161D01*
X0130801Y0252090D01*
X0130803Y0252020D01*
X0130803Y0250742D01*
X0130803Y0252275D02*
X0132847Y0253298D01*
X0132847Y0255213D02*
X0132847Y0257769D01*
X0132847Y0255213D02*
X0130292Y0257385D01*
X0128248Y0256619D02*
X0128250Y0256545D01*
X0128255Y0256471D01*
X0128265Y0256397D01*
X0128278Y0256324D01*
X0128294Y0256251D01*
X0128315Y0256180D01*
X0128339Y0256110D01*
X0128366Y0256041D01*
X0128397Y0255973D01*
X0128431Y0255907D01*
X0128468Y0255843D01*
X0128509Y0255781D01*
X0128553Y0255720D01*
X0128599Y0255663D01*
X0128649Y0255607D01*
X0128701Y0255554D01*
X0128756Y0255504D01*
X0128813Y0255457D01*
X0128873Y0255413D01*
X0128935Y0255371D01*
X0128998Y0255333D01*
X0129064Y0255298D01*
X0129131Y0255267D01*
X0129200Y0255239D01*
X0129270Y0255214D01*
X0130291Y0257385D02*
X0130244Y0257432D01*
X0130194Y0257476D01*
X0130142Y0257518D01*
X0130088Y0257557D01*
X0130032Y0257592D01*
X0129974Y0257625D01*
X0129914Y0257655D01*
X0129853Y0257681D01*
X0129790Y0257704D01*
X0129726Y0257723D01*
X0129662Y0257739D01*
X0129596Y0257752D01*
X0129530Y0257761D01*
X0129464Y0257766D01*
X0129397Y0257768D01*
X0129397Y0257769D02*
X0129330Y0257767D01*
X0129263Y0257761D01*
X0129197Y0257752D01*
X0129132Y0257738D01*
X0129067Y0257721D01*
X0129004Y0257700D01*
X0128942Y0257675D01*
X0128881Y0257647D01*
X0128822Y0257615D01*
X0128765Y0257580D01*
X0128710Y0257541D01*
X0128658Y0257500D01*
X0128608Y0257455D01*
X0128561Y0257408D01*
X0128516Y0257358D01*
X0128475Y0257306D01*
X0128436Y0257251D01*
X0128401Y0257194D01*
X0128369Y0257135D01*
X0128341Y0257074D01*
X0128316Y0257012D01*
X0128295Y0256949D01*
X0128278Y0256884D01*
X0128264Y0256819D01*
X0128255Y0256753D01*
X0128249Y0256686D01*
X0128247Y0256619D01*
X0143995Y0262457D02*
X0148595Y0262457D01*
X0148595Y0264501D01*
X0148595Y0266357D02*
X0143995Y0266357D01*
X0143995Y0268401D01*
X0143995Y0270248D02*
X0143995Y0271526D01*
X0143995Y0270248D02*
X0148595Y0270248D01*
X0148595Y0271526D01*
X0148596Y0271526D02*
X0148594Y0271595D01*
X0148589Y0271664D01*
X0148579Y0271733D01*
X0148566Y0271801D01*
X0148549Y0271868D01*
X0148529Y0271934D01*
X0148505Y0271999D01*
X0148478Y0272063D01*
X0148447Y0272125D01*
X0148413Y0272185D01*
X0148376Y0272243D01*
X0148335Y0272299D01*
X0148292Y0272353D01*
X0148246Y0272405D01*
X0148197Y0272454D01*
X0148145Y0272500D01*
X0148091Y0272543D01*
X0148035Y0272584D01*
X0147977Y0272621D01*
X0147917Y0272655D01*
X0147855Y0272686D01*
X0147791Y0272713D01*
X0147726Y0272737D01*
X0147660Y0272757D01*
X0147593Y0272774D01*
X0147525Y0272787D01*
X0147456Y0272797D01*
X0147387Y0272802D01*
X0147318Y0272804D01*
X0145273Y0272804D01*
X0145204Y0272802D01*
X0145135Y0272797D01*
X0145066Y0272787D01*
X0144998Y0272774D01*
X0144931Y0272757D01*
X0144865Y0272737D01*
X0144800Y0272713D01*
X0144736Y0272686D01*
X0144674Y0272655D01*
X0144614Y0272621D01*
X0144556Y0272584D01*
X0144500Y0272543D01*
X0144446Y0272500D01*
X0144394Y0272454D01*
X0144345Y0272405D01*
X0144299Y0272353D01*
X0144256Y0272299D01*
X0144215Y0272243D01*
X0144178Y0272185D01*
X0144144Y0272125D01*
X0144113Y0272063D01*
X0144086Y0271999D01*
X0144062Y0271934D01*
X0144042Y0271868D01*
X0144025Y0271801D01*
X0144012Y0271733D01*
X0144002Y0271664D01*
X0143997Y0271595D01*
X0143995Y0271526D01*
X0145018Y0274898D02*
X0143995Y0276176D01*
X0148595Y0276176D01*
X0148595Y0274898D02*
X0148595Y0277454D01*
X0140763Y0274819D02*
X0140840Y0274746D01*
X0140915Y0274671D01*
X0140986Y0274593D01*
X0141055Y0274512D01*
X0141121Y0274429D01*
X0141184Y0274344D01*
X0141243Y0274256D01*
X0141300Y0274167D01*
X0141353Y0274075D01*
X0141403Y0273981D01*
X0141449Y0273886D01*
X0141492Y0273789D01*
X0141531Y0273691D01*
X0141567Y0273591D01*
X0141599Y0273490D01*
X0141627Y0273388D01*
X0141652Y0273285D01*
X0141673Y0273181D01*
X0141690Y0273076D01*
X0141704Y0272971D01*
X0141713Y0272866D01*
X0141719Y0272760D01*
X0141721Y0272654D01*
X0141719Y0272548D01*
X0141713Y0272442D01*
X0141704Y0272337D01*
X0141690Y0272232D01*
X0141673Y0272127D01*
X0141652Y0272023D01*
X0141627Y0271920D01*
X0141599Y0271818D01*
X0141567Y0271717D01*
X0141531Y0271617D01*
X0141492Y0271519D01*
X0141449Y0271422D01*
X0141403Y0271327D01*
X0141353Y0271233D01*
X0141300Y0271141D01*
X0141243Y0271052D01*
X0141184Y0270964D01*
X0141121Y0270879D01*
X0141055Y0270796D01*
X0140986Y0270715D01*
X0140915Y0270637D01*
X0140840Y0270562D01*
X0140763Y0270489D01*
X0136827Y0270489D02*
X0136750Y0270562D01*
X0136675Y0270637D01*
X0136604Y0270715D01*
X0136535Y0270796D01*
X0136469Y0270879D01*
X0136406Y0270964D01*
X0136347Y0271052D01*
X0136290Y0271141D01*
X0136237Y0271233D01*
X0136187Y0271327D01*
X0136141Y0271422D01*
X0136098Y0271519D01*
X0136059Y0271617D01*
X0136023Y0271717D01*
X0135991Y0271818D01*
X0135963Y0271920D01*
X0135938Y0272023D01*
X0135917Y0272127D01*
X0135900Y0272232D01*
X0135886Y0272337D01*
X0135877Y0272442D01*
X0135871Y0272548D01*
X0135869Y0272654D01*
X0135871Y0272760D01*
X0135877Y0272866D01*
X0135886Y0272971D01*
X0135900Y0273076D01*
X0135917Y0273181D01*
X0135938Y0273285D01*
X0135963Y0273388D01*
X0135991Y0273490D01*
X0136023Y0273591D01*
X0136059Y0273691D01*
X0136098Y0273789D01*
X0136141Y0273886D01*
X0136187Y0273981D01*
X0136237Y0274075D01*
X0136290Y0274167D01*
X0136347Y0274256D01*
X0136406Y0274344D01*
X0136469Y0274429D01*
X0136535Y0274512D01*
X0136604Y0274593D01*
X0136675Y0274671D01*
X0136750Y0274746D01*
X0136827Y0274819D01*
X0132847Y0274898D02*
X0132847Y0277454D01*
X0132847Y0276176D02*
X0128247Y0276176D01*
X0129269Y0274898D01*
X0128247Y0271705D02*
X0128249Y0271775D01*
X0128255Y0271846D01*
X0128264Y0271915D01*
X0128278Y0271984D01*
X0128295Y0272053D01*
X0128316Y0272120D01*
X0128341Y0272186D01*
X0128369Y0272250D01*
X0128401Y0272313D01*
X0128436Y0272374D01*
X0128475Y0272433D01*
X0128516Y0272490D01*
X0128561Y0272544D01*
X0128609Y0272596D01*
X0128659Y0272645D01*
X0128713Y0272692D01*
X0128768Y0272735D01*
X0128826Y0272775D01*
X0128886Y0272812D01*
X0128948Y0272845D01*
X0129012Y0272875D01*
X0129077Y0272902D01*
X0129143Y0272925D01*
X0129211Y0272944D01*
X0129280Y0272959D01*
X0129349Y0272971D01*
X0129419Y0272979D01*
X0129490Y0272983D01*
X0129560Y0272983D01*
X0129631Y0272979D01*
X0129701Y0272971D01*
X0129770Y0272959D01*
X0129839Y0272944D01*
X0129907Y0272925D01*
X0129973Y0272902D01*
X0130038Y0272875D01*
X0130102Y0272845D01*
X0130164Y0272812D01*
X0130224Y0272775D01*
X0130282Y0272735D01*
X0130337Y0272692D01*
X0130391Y0272645D01*
X0130441Y0272596D01*
X0130489Y0272544D01*
X0130534Y0272490D01*
X0130575Y0272433D01*
X0130614Y0272374D01*
X0130649Y0272313D01*
X0130681Y0272250D01*
X0130709Y0272186D01*
X0130734Y0272120D01*
X0130755Y0272053D01*
X0130772Y0271984D01*
X0130786Y0271915D01*
X0130795Y0271846D01*
X0130801Y0271775D01*
X0130803Y0271705D01*
X0130803Y0270427D01*
X0130803Y0271960D02*
X0132847Y0272983D01*
X0132847Y0270427D02*
X0128247Y0270427D01*
X0128247Y0271705D01*
X0146040Y0267890D02*
X0146040Y0266357D01*
X0148595Y0266357D02*
X0148595Y0268401D01*
X0148595Y0257769D02*
X0148595Y0255213D01*
X0146040Y0257385D01*
X0143996Y0256619D02*
X0143998Y0256545D01*
X0144003Y0256471D01*
X0144013Y0256397D01*
X0144026Y0256324D01*
X0144042Y0256251D01*
X0144063Y0256180D01*
X0144087Y0256110D01*
X0144114Y0256041D01*
X0144145Y0255973D01*
X0144179Y0255907D01*
X0144216Y0255843D01*
X0144257Y0255781D01*
X0144301Y0255720D01*
X0144347Y0255663D01*
X0144397Y0255607D01*
X0144449Y0255554D01*
X0144504Y0255504D01*
X0144561Y0255457D01*
X0144621Y0255413D01*
X0144683Y0255371D01*
X0144746Y0255333D01*
X0144812Y0255298D01*
X0144879Y0255267D01*
X0144948Y0255239D01*
X0145018Y0255214D01*
X0146039Y0257385D02*
X0145992Y0257432D01*
X0145942Y0257476D01*
X0145890Y0257518D01*
X0145836Y0257557D01*
X0145780Y0257592D01*
X0145722Y0257625D01*
X0145662Y0257655D01*
X0145601Y0257681D01*
X0145538Y0257704D01*
X0145474Y0257723D01*
X0145410Y0257739D01*
X0145344Y0257752D01*
X0145278Y0257761D01*
X0145212Y0257766D01*
X0145145Y0257768D01*
X0145145Y0257769D02*
X0145078Y0257767D01*
X0145011Y0257761D01*
X0144945Y0257752D01*
X0144880Y0257738D01*
X0144815Y0257721D01*
X0144752Y0257700D01*
X0144690Y0257675D01*
X0144629Y0257647D01*
X0144570Y0257615D01*
X0144513Y0257580D01*
X0144458Y0257541D01*
X0144406Y0257500D01*
X0144356Y0257455D01*
X0144309Y0257408D01*
X0144264Y0257358D01*
X0144223Y0257306D01*
X0144184Y0257251D01*
X0144149Y0257194D01*
X0144117Y0257135D01*
X0144089Y0257074D01*
X0144064Y0257012D01*
X0144043Y0256949D01*
X0144026Y0256884D01*
X0144012Y0256819D01*
X0144003Y0256753D01*
X0143997Y0256686D01*
X0143995Y0256619D01*
D14*
X0138795Y0252969D03*
X0138795Y0233283D03*
X0138795Y0213598D03*
X0138795Y0272654D03*
D15*
X0136531Y0270587D03*
X0136531Y0250902D03*
X0136531Y0231217D03*
X0136531Y0211531D03*
D16*
X0142748Y0184004D02*
X0143748Y0184004D01*
X0142748Y0184004D02*
X0142748Y0174504D01*
X0143748Y0174504D01*
X0120748Y0174504D02*
X0120748Y0184504D01*
X0119748Y0184504D01*
X0119748Y0174504D02*
X0120748Y0174504D01*
D17*
X0191000Y0181669D02*
X0191000Y0186000D01*
X0191000Y0190331D01*
X0191000Y0186000D02*
X0195331Y0186000D01*
M02*
