G75*
%MOIN*%
%OFA0B0*%
%FSLAX25Y25*%
%IPPOS*%
%LPD*%
%AMOC8*
5,1,8,0,0,1.08239X$1,22.5*
%
%ADD10C,0.06800*%
%ADD11C,0.06400*%
%ADD12R,0.07898X0.07099*%
%ADD13R,0.16548X0.03950*%
%ADD14R,0.03950X0.10249*%
%ADD15OC8,0.06800*%
D10*
X0122848Y0163704D02*
X0122848Y0169704D01*
X0140648Y0169704D02*
X0140648Y0163704D01*
X0153000Y0166000D02*
X0159000Y0166000D01*
X0159000Y0176000D02*
X0153000Y0176000D01*
X0153000Y0186000D02*
X0159000Y0186000D01*
X0159000Y0196000D02*
X0153000Y0196000D01*
X0153000Y0206000D02*
X0159000Y0206000D01*
X0159000Y0216000D02*
X0153000Y0216000D01*
X0153000Y0226000D02*
X0159000Y0226000D01*
X0159000Y0236000D02*
X0153000Y0236000D01*
X0153000Y0246000D02*
X0159000Y0246000D01*
X0159000Y0256000D02*
X0153000Y0256000D01*
X0153000Y0266000D02*
X0159000Y0266000D01*
X0159000Y0276000D02*
X0153000Y0276000D01*
X0140648Y0195304D02*
X0140648Y0189304D01*
X0122848Y0189304D02*
X0122848Y0195304D01*
X0181000Y0169000D02*
X0181000Y0163000D01*
X0191000Y0163000D02*
X0191000Y0169000D01*
X0201000Y0169000D02*
X0201000Y0163000D01*
X0211000Y0163000D02*
X0211000Y0169000D01*
X0221000Y0169000D02*
X0221000Y0163000D01*
X0231000Y0163000D02*
X0231000Y0169000D01*
X0241000Y0169000D02*
X0241000Y0163000D01*
X0251000Y0163000D02*
X0251000Y0169000D01*
X0261000Y0169000D02*
X0261000Y0163000D01*
X0271000Y0163000D02*
X0271000Y0169000D01*
X0281000Y0169000D02*
X0281000Y0163000D01*
X0293000Y0166000D02*
X0299000Y0166000D01*
X0299000Y0176000D02*
X0293000Y0176000D01*
X0293000Y0186000D02*
X0299000Y0186000D01*
X0299000Y0196000D02*
X0293000Y0196000D01*
X0293000Y0206000D02*
X0299000Y0206000D01*
X0299000Y0216000D02*
X0293000Y0216000D01*
X0293000Y0226000D02*
X0299000Y0226000D01*
X0299000Y0236000D02*
X0293000Y0236000D01*
X0293000Y0246000D02*
X0299000Y0246000D01*
X0299000Y0256000D02*
X0293000Y0256000D01*
X0293000Y0266000D02*
X0299000Y0266000D01*
X0299000Y0276000D02*
X0293000Y0276000D01*
D11*
X0157063Y0153800D02*
X0157063Y0148200D01*
X0167063Y0148200D02*
X0167063Y0153800D01*
X0177063Y0153800D02*
X0177063Y0148200D01*
D12*
X0138795Y0208000D03*
X0138795Y0219197D03*
X0138795Y0227685D03*
X0138795Y0238882D03*
X0138795Y0247370D03*
X0138795Y0258567D03*
X0138795Y0267055D03*
X0138795Y0278252D03*
X0123047Y0278252D03*
X0123047Y0267055D03*
X0123047Y0258567D03*
X0123047Y0247370D03*
X0123047Y0238882D03*
X0123047Y0227685D03*
X0123047Y0219197D03*
X0123047Y0208000D03*
D13*
X0191000Y0206866D03*
X0191000Y0211197D03*
X0191000Y0215528D03*
X0191000Y0219858D03*
X0191000Y0224189D03*
X0191000Y0228520D03*
X0191000Y0232850D03*
X0191000Y0237181D03*
X0191000Y0241512D03*
X0191000Y0245843D03*
X0191000Y0202535D03*
X0191000Y0198205D03*
X0257929Y0198205D03*
X0257929Y0202535D03*
X0257929Y0206866D03*
X0257929Y0211197D03*
X0257929Y0215528D03*
X0257929Y0219858D03*
X0257929Y0224189D03*
X0257929Y0228520D03*
X0257929Y0232850D03*
X0257929Y0237181D03*
X0257929Y0241512D03*
X0257929Y0245843D03*
D14*
X0248283Y0186000D03*
X0243953Y0186000D03*
X0239622Y0186000D03*
X0235291Y0186000D03*
X0230961Y0186000D03*
X0226630Y0186000D03*
X0222299Y0186000D03*
X0217969Y0186000D03*
X0213638Y0186000D03*
X0209307Y0186000D03*
X0204976Y0186000D03*
X0200646Y0186000D03*
D15*
X0193913Y0150606D03*
X0276591Y0150606D03*
M02*
