G75*
%MOIN*%
%OFA0B0*%
%FSLAX25Y25*%
%IPPOS*%
%LPD*%
%AMOC8*
5,1,8,0,0,1.08239X$1,22.5*
%
%ADD10C,0.00600*%
%ADD11C,0.06000*%
%ADD12C,0.05600*%
%ADD13R,0.07098X0.06299*%
%ADD14R,0.15748X0.03150*%
%ADD15R,0.03150X0.09449*%
%ADD16OC8,0.06000*%
%ADD17C,0.01600*%
%ADD18C,0.01200*%
%ADD19C,0.01000*%
D10*
X0213898Y0146969D02*
X0213898Y0153369D01*
X0215676Y0153369D01*
X0215676Y0153370D02*
X0215759Y0153368D01*
X0215842Y0153362D01*
X0215925Y0153352D01*
X0216008Y0153339D01*
X0216089Y0153321D01*
X0216170Y0153300D01*
X0216249Y0153275D01*
X0216327Y0153246D01*
X0216404Y0153214D01*
X0216479Y0153178D01*
X0216553Y0153139D01*
X0216624Y0153096D01*
X0216694Y0153050D01*
X0216761Y0153000D01*
X0216826Y0152948D01*
X0216888Y0152893D01*
X0216948Y0152834D01*
X0217005Y0152773D01*
X0217059Y0152710D01*
X0217110Y0152644D01*
X0217157Y0152575D01*
X0217202Y0152505D01*
X0217243Y0152432D01*
X0217280Y0152358D01*
X0217315Y0152282D01*
X0217345Y0152204D01*
X0217372Y0152126D01*
X0217395Y0152045D01*
X0217415Y0151964D01*
X0217430Y0151882D01*
X0217442Y0151800D01*
X0217450Y0151717D01*
X0217454Y0151634D01*
X0217454Y0151550D01*
X0217450Y0151467D01*
X0217442Y0151384D01*
X0217430Y0151302D01*
X0217415Y0151220D01*
X0217395Y0151139D01*
X0217372Y0151058D01*
X0217345Y0150980D01*
X0217315Y0150902D01*
X0217280Y0150826D01*
X0217243Y0150752D01*
X0217202Y0150679D01*
X0217157Y0150609D01*
X0217110Y0150540D01*
X0217059Y0150474D01*
X0217005Y0150411D01*
X0216948Y0150350D01*
X0216888Y0150291D01*
X0216826Y0150236D01*
X0216761Y0150184D01*
X0216694Y0150134D01*
X0216624Y0150088D01*
X0216553Y0150045D01*
X0216479Y0150006D01*
X0216404Y0149970D01*
X0216327Y0149938D01*
X0216249Y0149909D01*
X0216170Y0149884D01*
X0216089Y0149863D01*
X0216008Y0149845D01*
X0215925Y0149832D01*
X0215842Y0149822D01*
X0215759Y0149816D01*
X0215676Y0149814D01*
X0213898Y0149814D01*
X0219942Y0148569D02*
X0223142Y0148569D01*
X0223675Y0146969D02*
X0221542Y0153369D01*
X0219409Y0146969D01*
X0226159Y0146969D02*
X0226159Y0153369D01*
X0227937Y0153369D01*
X0227937Y0153370D02*
X0228020Y0153368D01*
X0228103Y0153362D01*
X0228186Y0153352D01*
X0228269Y0153339D01*
X0228350Y0153321D01*
X0228431Y0153300D01*
X0228510Y0153275D01*
X0228588Y0153246D01*
X0228665Y0153214D01*
X0228740Y0153178D01*
X0228814Y0153139D01*
X0228885Y0153096D01*
X0228955Y0153050D01*
X0229022Y0153000D01*
X0229087Y0152948D01*
X0229149Y0152893D01*
X0229209Y0152834D01*
X0229266Y0152773D01*
X0229320Y0152710D01*
X0229371Y0152644D01*
X0229418Y0152575D01*
X0229463Y0152505D01*
X0229504Y0152432D01*
X0229541Y0152358D01*
X0229576Y0152282D01*
X0229606Y0152204D01*
X0229633Y0152126D01*
X0229656Y0152045D01*
X0229676Y0151964D01*
X0229691Y0151882D01*
X0229703Y0151800D01*
X0229711Y0151717D01*
X0229715Y0151634D01*
X0229715Y0151550D01*
X0229711Y0151467D01*
X0229703Y0151384D01*
X0229691Y0151302D01*
X0229676Y0151220D01*
X0229656Y0151139D01*
X0229633Y0151058D01*
X0229606Y0150980D01*
X0229576Y0150902D01*
X0229541Y0150826D01*
X0229504Y0150752D01*
X0229463Y0150679D01*
X0229418Y0150609D01*
X0229371Y0150540D01*
X0229320Y0150474D01*
X0229266Y0150411D01*
X0229209Y0150350D01*
X0229149Y0150291D01*
X0229087Y0150236D01*
X0229022Y0150184D01*
X0228955Y0150134D01*
X0228885Y0150088D01*
X0228814Y0150045D01*
X0228740Y0150006D01*
X0228665Y0149970D01*
X0228588Y0149938D01*
X0228510Y0149909D01*
X0228431Y0149884D01*
X0228350Y0149863D01*
X0228269Y0149845D01*
X0228186Y0149832D01*
X0228103Y0149822D01*
X0228020Y0149816D01*
X0227937Y0149814D01*
X0226159Y0149814D01*
X0228293Y0149814D02*
X0229715Y0146969D01*
X0233645Y0146969D02*
X0233645Y0153369D01*
X0231867Y0153369D02*
X0235423Y0153369D01*
X0237447Y0153369D02*
X0238869Y0153369D01*
X0238158Y0153369D02*
X0238158Y0146969D01*
X0237447Y0146969D02*
X0238869Y0146969D01*
X0241288Y0148392D02*
X0241288Y0151947D01*
X0241290Y0152021D01*
X0241296Y0152096D01*
X0241306Y0152169D01*
X0241319Y0152243D01*
X0241336Y0152315D01*
X0241358Y0152386D01*
X0241382Y0152457D01*
X0241411Y0152525D01*
X0241443Y0152593D01*
X0241479Y0152658D01*
X0241517Y0152721D01*
X0241560Y0152783D01*
X0241605Y0152842D01*
X0241653Y0152898D01*
X0241704Y0152953D01*
X0241758Y0153004D01*
X0241815Y0153052D01*
X0241874Y0153097D01*
X0241936Y0153140D01*
X0241999Y0153178D01*
X0242064Y0153214D01*
X0242132Y0153246D01*
X0242200Y0153275D01*
X0242271Y0153299D01*
X0242342Y0153321D01*
X0242414Y0153338D01*
X0242488Y0153351D01*
X0242561Y0153361D01*
X0242636Y0153367D01*
X0242710Y0153369D01*
X0244132Y0153369D01*
X0246649Y0153369D02*
X0246649Y0146969D01*
X0249493Y0146969D01*
X0251982Y0146969D02*
X0251982Y0153369D01*
X0254827Y0153369D01*
X0254115Y0150525D02*
X0251982Y0150525D01*
X0251982Y0146969D02*
X0254827Y0146969D01*
X0244132Y0146969D02*
X0242710Y0146969D01*
X0242710Y0146970D02*
X0242636Y0146972D01*
X0242561Y0146978D01*
X0242488Y0146988D01*
X0242414Y0147001D01*
X0242342Y0147018D01*
X0242271Y0147040D01*
X0242200Y0147064D01*
X0242132Y0147093D01*
X0242064Y0147125D01*
X0241999Y0147161D01*
X0241936Y0147199D01*
X0241874Y0147242D01*
X0241815Y0147287D01*
X0241758Y0147335D01*
X0241704Y0147386D01*
X0241653Y0147440D01*
X0241605Y0147497D01*
X0241560Y0147556D01*
X0241517Y0147618D01*
X0241479Y0147681D01*
X0241443Y0147746D01*
X0241411Y0147814D01*
X0241382Y0147882D01*
X0241358Y0147953D01*
X0241336Y0148024D01*
X0241319Y0148096D01*
X0241306Y0148170D01*
X0241296Y0148243D01*
X0241290Y0148318D01*
X0241288Y0148392D01*
X0304450Y0221772D02*
X0306227Y0221772D01*
X0304450Y0221772D02*
X0304450Y0228172D01*
X0306227Y0228172D01*
X0306227Y0228173D02*
X0306309Y0228171D01*
X0306391Y0228165D01*
X0306473Y0228156D01*
X0306554Y0228143D01*
X0306634Y0228126D01*
X0306714Y0228105D01*
X0306792Y0228081D01*
X0306869Y0228053D01*
X0306945Y0228022D01*
X0307020Y0227987D01*
X0307092Y0227948D01*
X0307163Y0227907D01*
X0307232Y0227862D01*
X0307298Y0227814D01*
X0307363Y0227763D01*
X0307425Y0227709D01*
X0307484Y0227652D01*
X0307541Y0227593D01*
X0307595Y0227531D01*
X0307646Y0227466D01*
X0307694Y0227400D01*
X0307739Y0227331D01*
X0307780Y0227260D01*
X0307819Y0227188D01*
X0307854Y0227113D01*
X0307885Y0227037D01*
X0307913Y0226960D01*
X0307937Y0226882D01*
X0307958Y0226802D01*
X0307975Y0226722D01*
X0307988Y0226641D01*
X0307997Y0226559D01*
X0308003Y0226477D01*
X0308005Y0226395D01*
X0308005Y0223550D01*
X0308003Y0223468D01*
X0307997Y0223386D01*
X0307988Y0223304D01*
X0307975Y0223223D01*
X0307958Y0223143D01*
X0307937Y0223063D01*
X0307913Y0222985D01*
X0307885Y0222908D01*
X0307854Y0222832D01*
X0307819Y0222757D01*
X0307780Y0222685D01*
X0307739Y0222614D01*
X0307694Y0222545D01*
X0307646Y0222479D01*
X0307595Y0222414D01*
X0307541Y0222352D01*
X0307484Y0222293D01*
X0307425Y0222236D01*
X0307363Y0222182D01*
X0307298Y0222131D01*
X0307232Y0222083D01*
X0307163Y0222038D01*
X0307092Y0221997D01*
X0307020Y0221958D01*
X0306945Y0221923D01*
X0306869Y0221892D01*
X0306792Y0221864D01*
X0306714Y0221840D01*
X0306634Y0221819D01*
X0306554Y0221802D01*
X0306473Y0221789D01*
X0306391Y0221780D01*
X0306309Y0221774D01*
X0306227Y0221772D01*
X0310645Y0221772D02*
X0312067Y0221772D01*
X0311356Y0221772D02*
X0311356Y0228172D01*
X0310645Y0228172D02*
X0312067Y0228172D01*
X0314501Y0226395D02*
X0314501Y0223550D01*
X0314503Y0223467D01*
X0314509Y0223384D01*
X0314519Y0223301D01*
X0314532Y0223218D01*
X0314550Y0223137D01*
X0314571Y0223056D01*
X0314596Y0222977D01*
X0314625Y0222899D01*
X0314657Y0222822D01*
X0314693Y0222747D01*
X0314732Y0222673D01*
X0314775Y0222602D01*
X0314821Y0222532D01*
X0314871Y0222465D01*
X0314923Y0222400D01*
X0314978Y0222338D01*
X0315037Y0222278D01*
X0315098Y0222221D01*
X0315161Y0222167D01*
X0315227Y0222116D01*
X0315296Y0222069D01*
X0315366Y0222024D01*
X0315439Y0221983D01*
X0315513Y0221946D01*
X0315589Y0221911D01*
X0315667Y0221881D01*
X0315745Y0221854D01*
X0315826Y0221831D01*
X0315907Y0221811D01*
X0315989Y0221796D01*
X0316071Y0221784D01*
X0316154Y0221776D01*
X0316237Y0221772D01*
X0316321Y0221772D01*
X0316404Y0221776D01*
X0316487Y0221784D01*
X0316569Y0221796D01*
X0316651Y0221811D01*
X0316732Y0221831D01*
X0316813Y0221854D01*
X0316891Y0221881D01*
X0316969Y0221911D01*
X0317045Y0221946D01*
X0317119Y0221983D01*
X0317192Y0222024D01*
X0317262Y0222069D01*
X0317331Y0222116D01*
X0317397Y0222167D01*
X0317460Y0222221D01*
X0317521Y0222278D01*
X0317580Y0222338D01*
X0317635Y0222400D01*
X0317687Y0222465D01*
X0317737Y0222532D01*
X0317783Y0222602D01*
X0317826Y0222673D01*
X0317865Y0222747D01*
X0317901Y0222822D01*
X0317933Y0222899D01*
X0317962Y0222977D01*
X0317987Y0223056D01*
X0318008Y0223137D01*
X0318026Y0223218D01*
X0318039Y0223301D01*
X0318049Y0223384D01*
X0318055Y0223467D01*
X0318057Y0223550D01*
X0318057Y0226395D01*
X0318055Y0226478D01*
X0318049Y0226561D01*
X0318039Y0226644D01*
X0318026Y0226727D01*
X0318008Y0226808D01*
X0317987Y0226889D01*
X0317962Y0226968D01*
X0317933Y0227046D01*
X0317901Y0227123D01*
X0317865Y0227198D01*
X0317826Y0227272D01*
X0317783Y0227343D01*
X0317737Y0227413D01*
X0317687Y0227480D01*
X0317635Y0227545D01*
X0317580Y0227607D01*
X0317521Y0227667D01*
X0317460Y0227724D01*
X0317397Y0227778D01*
X0317331Y0227829D01*
X0317262Y0227876D01*
X0317192Y0227921D01*
X0317119Y0227962D01*
X0317045Y0227999D01*
X0316969Y0228034D01*
X0316891Y0228064D01*
X0316813Y0228091D01*
X0316732Y0228114D01*
X0316651Y0228134D01*
X0316569Y0228149D01*
X0316487Y0228161D01*
X0316404Y0228169D01*
X0316321Y0228173D01*
X0316237Y0228173D01*
X0316154Y0228169D01*
X0316071Y0228161D01*
X0315989Y0228149D01*
X0315907Y0228134D01*
X0315826Y0228114D01*
X0315745Y0228091D01*
X0315667Y0228064D01*
X0315589Y0228034D01*
X0315513Y0227999D01*
X0315439Y0227962D01*
X0315366Y0227921D01*
X0315296Y0227876D01*
X0315227Y0227829D01*
X0315161Y0227778D01*
X0315098Y0227724D01*
X0315037Y0227667D01*
X0314978Y0227607D01*
X0314923Y0227545D01*
X0314871Y0227480D01*
X0314821Y0227413D01*
X0314775Y0227343D01*
X0314732Y0227272D01*
X0314693Y0227198D01*
X0314657Y0227123D01*
X0314625Y0227046D01*
X0314596Y0226968D01*
X0314571Y0226889D01*
X0314550Y0226808D01*
X0314532Y0226727D01*
X0314519Y0226644D01*
X0314509Y0226561D01*
X0314503Y0226478D01*
X0314501Y0226395D01*
X0315215Y0233583D02*
X0315215Y0239983D01*
X0316637Y0237495D02*
X0318771Y0233583D01*
X0315215Y0236072D02*
X0318771Y0239983D01*
X0312655Y0233583D02*
X0309810Y0233583D01*
X0309810Y0239983D01*
X0307294Y0239983D02*
X0305872Y0239983D01*
X0305798Y0239981D01*
X0305723Y0239975D01*
X0305650Y0239965D01*
X0305576Y0239952D01*
X0305504Y0239935D01*
X0305433Y0239913D01*
X0305362Y0239889D01*
X0305294Y0239860D01*
X0305226Y0239828D01*
X0305161Y0239792D01*
X0305098Y0239754D01*
X0305036Y0239711D01*
X0304977Y0239666D01*
X0304920Y0239618D01*
X0304866Y0239567D01*
X0304815Y0239512D01*
X0304767Y0239456D01*
X0304722Y0239397D01*
X0304679Y0239335D01*
X0304641Y0239272D01*
X0304605Y0239207D01*
X0304573Y0239139D01*
X0304544Y0239071D01*
X0304520Y0239000D01*
X0304498Y0238929D01*
X0304481Y0238857D01*
X0304468Y0238783D01*
X0304458Y0238710D01*
X0304452Y0238635D01*
X0304450Y0238561D01*
X0304450Y0235006D01*
X0304452Y0234932D01*
X0304458Y0234857D01*
X0304468Y0234784D01*
X0304481Y0234710D01*
X0304498Y0234638D01*
X0304520Y0234567D01*
X0304544Y0234496D01*
X0304573Y0234428D01*
X0304605Y0234360D01*
X0304641Y0234295D01*
X0304679Y0234232D01*
X0304722Y0234170D01*
X0304767Y0234111D01*
X0304815Y0234054D01*
X0304866Y0234000D01*
X0304920Y0233949D01*
X0304977Y0233901D01*
X0305036Y0233856D01*
X0305098Y0233813D01*
X0305161Y0233775D01*
X0305226Y0233739D01*
X0305294Y0233707D01*
X0305362Y0233678D01*
X0305433Y0233654D01*
X0305504Y0233632D01*
X0305576Y0233615D01*
X0305650Y0233602D01*
X0305723Y0233592D01*
X0305798Y0233586D01*
X0305872Y0233584D01*
X0305872Y0233583D02*
X0307294Y0233583D01*
X0143968Y0286542D02*
X0143968Y0289387D01*
X0143969Y0289387D02*
X0143967Y0289469D01*
X0143961Y0289551D01*
X0143952Y0289633D01*
X0143939Y0289714D01*
X0143922Y0289794D01*
X0143901Y0289874D01*
X0143877Y0289952D01*
X0143849Y0290029D01*
X0143818Y0290105D01*
X0143783Y0290180D01*
X0143744Y0290252D01*
X0143703Y0290323D01*
X0143658Y0290392D01*
X0143610Y0290458D01*
X0143559Y0290523D01*
X0143505Y0290585D01*
X0143448Y0290644D01*
X0143389Y0290701D01*
X0143327Y0290755D01*
X0143262Y0290806D01*
X0143196Y0290854D01*
X0143127Y0290899D01*
X0143056Y0290940D01*
X0142984Y0290979D01*
X0142909Y0291014D01*
X0142833Y0291045D01*
X0142756Y0291073D01*
X0142678Y0291097D01*
X0142598Y0291118D01*
X0142518Y0291135D01*
X0142437Y0291148D01*
X0142355Y0291157D01*
X0142273Y0291163D01*
X0142191Y0291165D01*
X0140413Y0291165D01*
X0140413Y0284765D01*
X0142191Y0284765D01*
X0142191Y0284764D02*
X0142273Y0284766D01*
X0142355Y0284772D01*
X0142437Y0284781D01*
X0142518Y0284794D01*
X0142598Y0284811D01*
X0142678Y0284832D01*
X0142756Y0284856D01*
X0142833Y0284884D01*
X0142909Y0284915D01*
X0142984Y0284950D01*
X0143056Y0284989D01*
X0143127Y0285030D01*
X0143196Y0285075D01*
X0143262Y0285123D01*
X0143327Y0285174D01*
X0143389Y0285228D01*
X0143448Y0285285D01*
X0143505Y0285344D01*
X0143559Y0285406D01*
X0143610Y0285471D01*
X0143658Y0285537D01*
X0143703Y0285606D01*
X0143744Y0285677D01*
X0143783Y0285749D01*
X0143818Y0285824D01*
X0143849Y0285900D01*
X0143877Y0285977D01*
X0143901Y0286055D01*
X0143922Y0286135D01*
X0143939Y0286215D01*
X0143952Y0286296D01*
X0143961Y0286378D01*
X0143967Y0286460D01*
X0143969Y0286542D01*
X0137404Y0284765D02*
X0137404Y0291165D01*
X0133849Y0291165D02*
X0137404Y0284765D01*
X0133849Y0284765D02*
X0133849Y0291165D01*
X0130840Y0291165D02*
X0128706Y0291165D01*
X0128706Y0291164D02*
X0128632Y0291162D01*
X0128557Y0291156D01*
X0128484Y0291146D01*
X0128410Y0291133D01*
X0128338Y0291116D01*
X0128267Y0291094D01*
X0128196Y0291070D01*
X0128128Y0291041D01*
X0128060Y0291009D01*
X0127995Y0290973D01*
X0127932Y0290935D01*
X0127870Y0290892D01*
X0127811Y0290847D01*
X0127754Y0290799D01*
X0127700Y0290748D01*
X0127649Y0290693D01*
X0127601Y0290637D01*
X0127556Y0290578D01*
X0127513Y0290516D01*
X0127475Y0290453D01*
X0127439Y0290388D01*
X0127407Y0290320D01*
X0127378Y0290252D01*
X0127354Y0290181D01*
X0127332Y0290110D01*
X0127315Y0290038D01*
X0127302Y0289964D01*
X0127292Y0289891D01*
X0127286Y0289816D01*
X0127284Y0289742D01*
X0127284Y0286187D01*
X0127286Y0286113D01*
X0127292Y0286038D01*
X0127302Y0285965D01*
X0127315Y0285891D01*
X0127332Y0285819D01*
X0127354Y0285748D01*
X0127378Y0285677D01*
X0127407Y0285609D01*
X0127439Y0285541D01*
X0127475Y0285476D01*
X0127513Y0285413D01*
X0127556Y0285351D01*
X0127601Y0285292D01*
X0127649Y0285235D01*
X0127700Y0285181D01*
X0127754Y0285130D01*
X0127811Y0285082D01*
X0127870Y0285037D01*
X0127932Y0284994D01*
X0127995Y0284956D01*
X0128060Y0284920D01*
X0128128Y0284888D01*
X0128196Y0284859D01*
X0128267Y0284835D01*
X0128338Y0284813D01*
X0128410Y0284796D01*
X0128484Y0284783D01*
X0128557Y0284773D01*
X0128632Y0284767D01*
X0128706Y0284765D01*
X0130840Y0284765D01*
X0130840Y0288320D01*
X0129773Y0288320D01*
D11*
X0153000Y0276000D02*
X0159000Y0276000D01*
X0159000Y0266000D02*
X0153000Y0266000D01*
X0153000Y0256000D02*
X0159000Y0256000D01*
X0159000Y0246000D02*
X0153000Y0246000D01*
X0153000Y0236000D02*
X0159000Y0236000D01*
X0159000Y0226000D02*
X0153000Y0226000D01*
X0153000Y0216000D02*
X0159000Y0216000D01*
X0159000Y0206000D02*
X0153000Y0206000D01*
X0153000Y0196000D02*
X0159000Y0196000D01*
X0159000Y0186000D02*
X0153000Y0186000D01*
X0153000Y0176000D02*
X0159000Y0176000D01*
X0159000Y0166000D02*
X0153000Y0166000D01*
X0140648Y0163704D02*
X0140648Y0169704D01*
X0122848Y0169704D02*
X0122848Y0163704D01*
X0122848Y0189304D02*
X0122848Y0195304D01*
X0140648Y0195304D02*
X0140648Y0189304D01*
X0181000Y0169000D02*
X0181000Y0163000D01*
X0191000Y0163000D02*
X0191000Y0169000D01*
X0201000Y0169000D02*
X0201000Y0163000D01*
X0211000Y0163000D02*
X0211000Y0169000D01*
X0221000Y0169000D02*
X0221000Y0163000D01*
X0231000Y0163000D02*
X0231000Y0169000D01*
X0241000Y0169000D02*
X0241000Y0163000D01*
X0251000Y0163000D02*
X0251000Y0169000D01*
X0261000Y0169000D02*
X0261000Y0163000D01*
X0271000Y0163000D02*
X0271000Y0169000D01*
X0281000Y0169000D02*
X0281000Y0163000D01*
X0293000Y0166000D02*
X0299000Y0166000D01*
X0299000Y0176000D02*
X0293000Y0176000D01*
X0293000Y0186000D02*
X0299000Y0186000D01*
X0299000Y0196000D02*
X0293000Y0196000D01*
X0293000Y0206000D02*
X0299000Y0206000D01*
X0299000Y0216000D02*
X0293000Y0216000D01*
X0293000Y0226000D02*
X0299000Y0226000D01*
X0299000Y0236000D02*
X0293000Y0236000D01*
X0293000Y0246000D02*
X0299000Y0246000D01*
X0299000Y0256000D02*
X0293000Y0256000D01*
X0293000Y0266000D02*
X0299000Y0266000D01*
X0299000Y0276000D02*
X0293000Y0276000D01*
D12*
X0177063Y0153800D02*
X0177063Y0148200D01*
X0167063Y0148200D02*
X0167063Y0153800D01*
X0157063Y0153800D02*
X0157063Y0148200D01*
D13*
X0138795Y0208000D03*
X0138795Y0219197D03*
X0138795Y0227685D03*
X0138795Y0238882D03*
X0138795Y0247370D03*
X0138795Y0258567D03*
X0138795Y0267055D03*
X0138795Y0278252D03*
X0123047Y0278252D03*
X0123047Y0267055D03*
X0123047Y0258567D03*
X0123047Y0247370D03*
X0123047Y0238882D03*
X0123047Y0227685D03*
X0123047Y0219197D03*
X0123047Y0208000D03*
D14*
X0191000Y0206866D03*
X0191000Y0211197D03*
X0191000Y0215528D03*
X0191000Y0219858D03*
X0191000Y0224189D03*
X0191000Y0228520D03*
X0191000Y0232850D03*
X0191000Y0237181D03*
X0191000Y0241512D03*
X0191000Y0245843D03*
X0191000Y0202535D03*
X0191000Y0198205D03*
X0257929Y0198205D03*
X0257929Y0202535D03*
X0257929Y0206866D03*
X0257929Y0211197D03*
X0257929Y0215528D03*
X0257929Y0219858D03*
X0257929Y0224189D03*
X0257929Y0228520D03*
X0257929Y0232850D03*
X0257929Y0237181D03*
X0257929Y0241512D03*
X0257929Y0245843D03*
D15*
X0248283Y0186000D03*
X0243953Y0186000D03*
X0239622Y0186000D03*
X0235291Y0186000D03*
X0230961Y0186000D03*
X0226630Y0186000D03*
X0222299Y0186000D03*
X0217969Y0186000D03*
X0213638Y0186000D03*
X0209307Y0186000D03*
X0204976Y0186000D03*
X0200646Y0186000D03*
D16*
X0193913Y0150606D03*
X0276591Y0150606D03*
D17*
X0268717Y0142732D02*
X0138795Y0142732D01*
X0126984Y0154543D01*
X0122848Y0158680D01*
X0122848Y0166704D01*
X0126984Y0154543D02*
X0142732Y0154543D01*
X0146669Y0158480D01*
X0146669Y0166669D01*
X0156000Y0176000D01*
X0182535Y0202535D01*
X0191000Y0202535D01*
X0191000Y0198205D02*
X0167063Y0174268D01*
X0167063Y0151000D01*
X0157063Y0151000D02*
X0157063Y0164937D01*
X0156000Y0166000D01*
X0156000Y0186000D02*
X0156039Y0186039D01*
X0158480Y0186039D01*
X0179307Y0206866D01*
X0191000Y0206866D01*
X0191000Y0211197D02*
X0175764Y0211197D01*
X0160567Y0196000D01*
X0156000Y0196000D01*
X0146669Y0197850D02*
X0141123Y0192304D01*
X0140648Y0192304D01*
X0146669Y0197850D02*
X0146669Y0216669D01*
X0156000Y0226000D01*
X0153800Y0223800D01*
X0156000Y0226000D02*
X0156591Y0225409D01*
X0174228Y0225409D01*
X0175449Y0224189D01*
X0191000Y0224189D01*
X0191000Y0219858D02*
X0159858Y0219858D01*
X0156000Y0216000D01*
X0146669Y0221472D02*
X0146669Y0233283D01*
X0150606Y0237220D01*
X0157220Y0237220D01*
X0156000Y0236000D01*
X0157220Y0237220D02*
X0162417Y0237220D01*
X0171118Y0228520D01*
X0191000Y0228520D01*
X0191000Y0232850D02*
X0174661Y0232850D01*
X0161512Y0246000D01*
X0156000Y0246000D01*
X0155094Y0245094D01*
X0146669Y0245094D01*
X0140457Y0238882D01*
X0138795Y0238882D01*
X0138795Y0247370D02*
X0123047Y0247370D01*
X0120772Y0241157D02*
X0123047Y0238882D01*
X0120772Y0241157D02*
X0119110Y0241157D01*
X0115173Y0245094D01*
X0115173Y0225409D01*
X0115173Y0221472D01*
X0119110Y0217535D01*
X0121386Y0217535D01*
X0123047Y0219197D01*
X0123047Y0227685D02*
X0138795Y0227685D01*
X0138795Y0219197D02*
X0144394Y0219197D01*
X0146669Y0221472D01*
X0138795Y0208000D02*
X0123047Y0208000D01*
X0123047Y0199704D01*
X0122848Y0192304D02*
X0115173Y0199979D01*
X0115173Y0225409D01*
X0115173Y0245094D02*
X0115173Y0264780D01*
X0119110Y0260843D01*
X0120772Y0260843D01*
X0123047Y0258567D01*
X0115173Y0264780D02*
X0115173Y0272654D01*
X0120772Y0278252D01*
X0123047Y0278252D01*
X0123047Y0280528D01*
X0126984Y0284465D01*
X0146669Y0284465D01*
X0155134Y0276000D01*
X0156000Y0276000D01*
X0155409Y0276591D01*
X0156000Y0276000D02*
X0160843Y0276000D01*
X0191000Y0245843D01*
X0191000Y0241512D02*
X0190646Y0241157D01*
X0182102Y0241157D01*
X0157260Y0266000D01*
X0156000Y0266000D01*
X0143748Y0278252D01*
X0138795Y0278252D01*
X0138795Y0267055D02*
X0123047Y0267055D01*
X0138795Y0258567D02*
X0153433Y0258567D01*
X0156000Y0256000D01*
X0159386Y0256000D01*
X0178165Y0237220D01*
X0190961Y0237220D01*
X0191000Y0237181D01*
X0191000Y0215528D02*
X0168283Y0215528D01*
X0158480Y0205724D01*
X0156276Y0205724D01*
X0156000Y0206000D01*
X0257929Y0206866D02*
X0267575Y0206866D01*
X0288441Y0186000D01*
X0296000Y0186000D01*
X0296276Y0193913D02*
X0296276Y0195724D01*
X0296000Y0196000D01*
X0294150Y0197850D01*
X0284465Y0197850D01*
X0271118Y0211197D01*
X0257929Y0211197D01*
X0257929Y0215528D02*
X0274661Y0215528D01*
X0284465Y0205724D01*
X0284740Y0206000D01*
X0296000Y0206000D01*
X0296000Y0216000D02*
X0292142Y0219858D01*
X0257929Y0219858D01*
X0257929Y0224189D02*
X0294189Y0224189D01*
X0296000Y0226000D01*
X0289346Y0229346D02*
X0260843Y0229346D01*
X0260016Y0228520D01*
X0257929Y0228520D01*
X0257929Y0232850D02*
X0276157Y0232850D01*
X0288402Y0245094D01*
X0295094Y0245094D01*
X0296000Y0246000D01*
X0296000Y0236000D02*
X0289346Y0229346D01*
X0294465Y0217535D02*
X0296000Y0216000D01*
X0272614Y0237181D02*
X0292339Y0256906D01*
X0295094Y0256906D01*
X0296000Y0256000D01*
X0294780Y0264780D02*
X0292339Y0264780D01*
X0268717Y0241157D01*
X0268362Y0241512D01*
X0257929Y0241512D01*
X0257929Y0245843D02*
X0257929Y0246118D01*
X0288402Y0276591D01*
X0295409Y0276591D01*
X0296000Y0276000D01*
X0296000Y0266000D02*
X0294780Y0264780D01*
X0272614Y0237181D02*
X0257929Y0237181D01*
X0257929Y0202535D02*
X0258677Y0201787D01*
X0268717Y0201787D01*
X0294504Y0176000D01*
X0296000Y0176000D01*
X0296000Y0166630D02*
X0296000Y0166000D01*
X0296000Y0166630D02*
X0280528Y0182102D01*
X0274031Y0182102D01*
X0257929Y0198205D01*
X0276591Y0150606D02*
X0268717Y0142732D01*
D18*
X0281000Y0166000D02*
X0261044Y0185956D01*
X0261045Y0185956D02*
X0261021Y0185977D01*
X0260995Y0185995D01*
X0260967Y0186011D01*
X0260937Y0186023D01*
X0260906Y0186032D01*
X0260875Y0186037D01*
X0260843Y0186039D01*
X0260747Y0186000D02*
X0248283Y0186000D01*
X0235291Y0181130D02*
X0235293Y0181032D01*
X0235299Y0180934D01*
X0235308Y0180836D01*
X0235322Y0180739D01*
X0235339Y0180642D01*
X0235360Y0180546D01*
X0235385Y0180451D01*
X0235413Y0180357D01*
X0235446Y0180265D01*
X0235481Y0180173D01*
X0235521Y0180083D01*
X0235563Y0179995D01*
X0235610Y0179908D01*
X0235659Y0179824D01*
X0235712Y0179741D01*
X0235768Y0179661D01*
X0235828Y0179582D01*
X0235890Y0179506D01*
X0235955Y0179433D01*
X0236023Y0179362D01*
X0236024Y0179362D02*
X0241157Y0174228D01*
X0245094Y0174228D01*
X0250268Y0169055D01*
X0251000Y0167287D02*
X0251000Y0166000D01*
X0251000Y0167287D02*
X0250998Y0167385D01*
X0250992Y0167483D01*
X0250983Y0167581D01*
X0250969Y0167678D01*
X0250952Y0167775D01*
X0250931Y0167871D01*
X0250906Y0167966D01*
X0250878Y0168060D01*
X0250845Y0168152D01*
X0250810Y0168244D01*
X0250770Y0168334D01*
X0250728Y0168422D01*
X0250681Y0168509D01*
X0250632Y0168593D01*
X0250579Y0168676D01*
X0250523Y0168756D01*
X0250463Y0168835D01*
X0250401Y0168911D01*
X0250336Y0168984D01*
X0250268Y0169055D01*
X0241157Y0166354D02*
X0231693Y0175819D01*
X0230961Y0177587D02*
X0230961Y0186000D01*
X0235291Y0186000D02*
X0235291Y0181130D01*
X0230961Y0177587D02*
X0230963Y0177489D01*
X0230969Y0177391D01*
X0230978Y0177293D01*
X0230992Y0177196D01*
X0231009Y0177099D01*
X0231030Y0177003D01*
X0231055Y0176908D01*
X0231083Y0176814D01*
X0231116Y0176722D01*
X0231151Y0176630D01*
X0231191Y0176540D01*
X0231233Y0176452D01*
X0231280Y0176365D01*
X0231329Y0176281D01*
X0231382Y0176198D01*
X0231438Y0176118D01*
X0231498Y0176039D01*
X0231560Y0175963D01*
X0231625Y0175890D01*
X0231693Y0175819D01*
X0229346Y0174228D02*
X0229346Y0168689D01*
X0230079Y0166921D02*
X0231000Y0166000D01*
X0230078Y0166921D02*
X0230010Y0166992D01*
X0229945Y0167065D01*
X0229883Y0167141D01*
X0229823Y0167220D01*
X0229767Y0167300D01*
X0229714Y0167383D01*
X0229665Y0167467D01*
X0229618Y0167554D01*
X0229576Y0167642D01*
X0229536Y0167732D01*
X0229501Y0167824D01*
X0229468Y0167916D01*
X0229440Y0168010D01*
X0229415Y0168105D01*
X0229394Y0168201D01*
X0229377Y0168298D01*
X0229363Y0168395D01*
X0229354Y0168493D01*
X0229348Y0168591D01*
X0229346Y0168689D01*
X0229346Y0174228D02*
X0227362Y0176213D01*
X0226630Y0177980D02*
X0226630Y0186000D01*
X0222299Y0186000D02*
X0222299Y0168335D01*
X0221567Y0166567D02*
X0221000Y0166000D01*
X0221567Y0166567D02*
X0221635Y0166638D01*
X0221700Y0166711D01*
X0221762Y0166787D01*
X0221822Y0166866D01*
X0221878Y0166946D01*
X0221931Y0167029D01*
X0221980Y0167113D01*
X0222027Y0167200D01*
X0222069Y0167288D01*
X0222109Y0167378D01*
X0222144Y0167470D01*
X0222177Y0167562D01*
X0222205Y0167656D01*
X0222230Y0167751D01*
X0222251Y0167847D01*
X0222268Y0167944D01*
X0222282Y0168041D01*
X0222291Y0168139D01*
X0222297Y0168237D01*
X0222299Y0168335D01*
X0210393Y0166606D02*
X0210325Y0166677D01*
X0210260Y0166750D01*
X0210198Y0166826D01*
X0210138Y0166905D01*
X0210082Y0166985D01*
X0210029Y0167068D01*
X0209980Y0167152D01*
X0209933Y0167239D01*
X0209891Y0167327D01*
X0209851Y0167417D01*
X0209816Y0167509D01*
X0209783Y0167601D01*
X0209755Y0167695D01*
X0209730Y0167790D01*
X0209709Y0167886D01*
X0209692Y0167983D01*
X0209678Y0168080D01*
X0209669Y0168178D01*
X0209663Y0168276D01*
X0209661Y0168374D01*
X0209661Y0170291D01*
X0217236Y0177866D01*
X0217969Y0179634D02*
X0217969Y0186000D01*
X0213638Y0186000D02*
X0213638Y0179673D01*
X0217237Y0177866D02*
X0217305Y0177937D01*
X0217370Y0178010D01*
X0217432Y0178086D01*
X0217492Y0178165D01*
X0217548Y0178245D01*
X0217601Y0178328D01*
X0217650Y0178412D01*
X0217697Y0178499D01*
X0217739Y0178587D01*
X0217779Y0178677D01*
X0217814Y0178769D01*
X0217847Y0178861D01*
X0217875Y0178955D01*
X0217900Y0179050D01*
X0217921Y0179146D01*
X0217938Y0179243D01*
X0217952Y0179340D01*
X0217961Y0179438D01*
X0217967Y0179536D01*
X0217969Y0179634D01*
X0212906Y0177906D02*
X0201000Y0166000D01*
X0201787Y0174228D02*
X0193913Y0174228D01*
X0189976Y0170291D01*
X0189976Y0168059D01*
X0190709Y0166291D02*
X0191000Y0166000D01*
X0190708Y0166291D02*
X0190640Y0166362D01*
X0190575Y0166435D01*
X0190513Y0166511D01*
X0190453Y0166590D01*
X0190397Y0166670D01*
X0190344Y0166753D01*
X0190295Y0166837D01*
X0190248Y0166924D01*
X0190206Y0167012D01*
X0190166Y0167102D01*
X0190131Y0167194D01*
X0190098Y0167286D01*
X0190070Y0167380D01*
X0190045Y0167475D01*
X0190024Y0167571D01*
X0190007Y0167668D01*
X0189993Y0167765D01*
X0189984Y0167863D01*
X0189978Y0167961D01*
X0189976Y0168059D01*
X0182102Y0168138D02*
X0182102Y0174228D01*
X0186039Y0178165D01*
X0201787Y0178165D01*
X0204244Y0180622D01*
X0204976Y0182390D02*
X0204976Y0186000D01*
X0209307Y0182784D02*
X0209305Y0182686D01*
X0209299Y0182588D01*
X0209290Y0182490D01*
X0209276Y0182393D01*
X0209259Y0182296D01*
X0209238Y0182200D01*
X0209213Y0182105D01*
X0209185Y0182011D01*
X0209152Y0181919D01*
X0209117Y0181827D01*
X0209077Y0181737D01*
X0209035Y0181649D01*
X0208988Y0181562D01*
X0208939Y0181478D01*
X0208886Y0181395D01*
X0208830Y0181315D01*
X0208770Y0181236D01*
X0208708Y0181160D01*
X0208643Y0181087D01*
X0208575Y0181016D01*
X0201787Y0174228D01*
X0204244Y0180622D02*
X0204312Y0180693D01*
X0204377Y0180766D01*
X0204439Y0180842D01*
X0204499Y0180921D01*
X0204555Y0181001D01*
X0204608Y0181084D01*
X0204657Y0181168D01*
X0204704Y0181255D01*
X0204746Y0181343D01*
X0204786Y0181433D01*
X0204821Y0181525D01*
X0204854Y0181617D01*
X0204882Y0181711D01*
X0204907Y0181806D01*
X0204928Y0181902D01*
X0204945Y0181999D01*
X0204959Y0182096D01*
X0204968Y0182194D01*
X0204974Y0182292D01*
X0204976Y0182390D01*
X0209307Y0182784D02*
X0209307Y0186000D01*
X0213638Y0179673D02*
X0213636Y0179575D01*
X0213630Y0179477D01*
X0213621Y0179379D01*
X0213607Y0179282D01*
X0213590Y0179185D01*
X0213569Y0179089D01*
X0213544Y0178994D01*
X0213516Y0178900D01*
X0213483Y0178808D01*
X0213448Y0178716D01*
X0213408Y0178626D01*
X0213366Y0178538D01*
X0213319Y0178451D01*
X0213270Y0178367D01*
X0213217Y0178284D01*
X0213161Y0178204D01*
X0213101Y0178125D01*
X0213039Y0178049D01*
X0212974Y0177976D01*
X0212906Y0177905D01*
X0210394Y0166606D02*
X0211000Y0166000D01*
X0227362Y0176212D02*
X0227294Y0176283D01*
X0227229Y0176356D01*
X0227167Y0176432D01*
X0227107Y0176511D01*
X0227051Y0176591D01*
X0226998Y0176674D01*
X0226949Y0176758D01*
X0226902Y0176845D01*
X0226860Y0176933D01*
X0226820Y0177023D01*
X0226785Y0177115D01*
X0226752Y0177207D01*
X0226724Y0177301D01*
X0226699Y0177396D01*
X0226678Y0177492D01*
X0226661Y0177589D01*
X0226647Y0177686D01*
X0226638Y0177784D01*
X0226632Y0177882D01*
X0226630Y0177980D01*
X0241157Y0166354D02*
X0241155Y0166313D01*
X0241150Y0166272D01*
X0241141Y0166231D01*
X0241128Y0166192D01*
X0241112Y0166153D01*
X0241093Y0166116D01*
X0241071Y0166082D01*
X0241046Y0166049D01*
X0241018Y0166018D01*
X0241000Y0166000D01*
X0260747Y0186000D02*
X0260768Y0186002D01*
X0260788Y0186007D01*
X0260808Y0186015D01*
X0260826Y0186026D01*
X0260842Y0186039D01*
X0193913Y0150606D02*
X0193520Y0151000D01*
X0177063Y0151000D01*
X0181000Y0166000D02*
X0181370Y0166370D01*
X0181438Y0166441D01*
X0181503Y0166514D01*
X0181565Y0166590D01*
X0181625Y0166669D01*
X0181681Y0166749D01*
X0181734Y0166832D01*
X0181783Y0166916D01*
X0181830Y0167003D01*
X0181872Y0167091D01*
X0181912Y0167181D01*
X0181947Y0167273D01*
X0181980Y0167365D01*
X0182008Y0167459D01*
X0182033Y0167554D01*
X0182054Y0167650D01*
X0182071Y0167747D01*
X0182085Y0167844D01*
X0182094Y0167942D01*
X0182100Y0168040D01*
X0182102Y0168138D01*
D19*
X0244362Y0185591D02*
X0244430Y0185520D01*
X0244495Y0185447D01*
X0244557Y0185371D01*
X0244617Y0185292D01*
X0244673Y0185212D01*
X0244726Y0185129D01*
X0244775Y0185045D01*
X0244822Y0184958D01*
X0244864Y0184870D01*
X0244904Y0184780D01*
X0244939Y0184688D01*
X0244972Y0184596D01*
X0245000Y0184502D01*
X0245025Y0184407D01*
X0245046Y0184311D01*
X0245063Y0184214D01*
X0245077Y0184117D01*
X0245086Y0184019D01*
X0245092Y0183921D01*
X0245094Y0183823D01*
X0245094Y0178165D01*
X0248299Y0174961D01*
X0250067Y0174228D02*
X0261736Y0174228D01*
X0263504Y0173496D02*
X0271000Y0166000D01*
X0263504Y0173496D02*
X0263433Y0173564D01*
X0263360Y0173629D01*
X0263284Y0173691D01*
X0263205Y0173751D01*
X0263125Y0173807D01*
X0263042Y0173860D01*
X0262958Y0173909D01*
X0262871Y0173956D01*
X0262783Y0173998D01*
X0262693Y0174038D01*
X0262601Y0174073D01*
X0262509Y0174106D01*
X0262415Y0174134D01*
X0262320Y0174159D01*
X0262224Y0174180D01*
X0262127Y0174197D01*
X0262030Y0174211D01*
X0261932Y0174220D01*
X0261834Y0174226D01*
X0261736Y0174228D01*
X0250067Y0174228D02*
X0249969Y0174230D01*
X0249871Y0174236D01*
X0249773Y0174245D01*
X0249676Y0174259D01*
X0249579Y0174276D01*
X0249483Y0174297D01*
X0249388Y0174322D01*
X0249294Y0174350D01*
X0249202Y0174383D01*
X0249110Y0174418D01*
X0249020Y0174458D01*
X0248932Y0174500D01*
X0248845Y0174547D01*
X0248761Y0174596D01*
X0248678Y0174649D01*
X0248598Y0174705D01*
X0248519Y0174765D01*
X0248443Y0174827D01*
X0248370Y0174892D01*
X0248299Y0174960D01*
X0244362Y0185591D02*
X0243953Y0186000D01*
M02*
