%
M48
M72
T01C0.03600
T02C0.04000
%
T01
X157063Y151000
X167063Y151000
X177063Y151000
T02
X181000Y166000
X191000Y166000
X201000Y166000
X211000Y166000
X221000Y166000
X231000Y166000
X241000Y166000
X251000Y166000
X261000Y166000
X271000Y166000
X281000Y166000
X296000Y166000
X296000Y176000
X296000Y186000
X296000Y196000
X296000Y206000
X296000Y216000
X296000Y226000
X296000Y236000
X296000Y246000
X296000Y256000
X296000Y266000
X296000Y276000
X156000Y276000
X156000Y266000
X156000Y256000
X156000Y246000
X156000Y236000
X156000Y226000
X156000Y216000
X156000Y206000
X156000Y196000
X156000Y186000
X156000Y176000
X156000Y166000
X140648Y166704
X122848Y166704
X122848Y192304
X140648Y192304
X193913Y150606
X276591Y150606
M30
